<svg width="375" height="353" viewBox="0 0 375 353" fill="none" xmlns="http://www.w3.org/2000/svg">
<g clip-path="url(#clip0_4010_69244)">
<rect width="375" height="353" fill="white"/>
<path d="M-49.8467 47.1191H422.568V326.156C422.568 354.747 399.391 377.925 370.8 377.925H1.92219C-26.669 377.925 -49.8467 354.747 -49.8467 326.156L-49.8467 47.1191Z" fill="#EF3124"/>
<path d="M65.9099 196.692C96.2664 196.692 120.875 171.934 120.875 141.393C120.875 110.853 96.2664 86.0947 65.9099 86.0947C35.5534 86.0947 10.9446 110.853 10.9446 141.393C10.9446 171.934 35.5534 196.692 65.9099 196.692Z" fill="white"/>
<path d="M307.757 196.692C338.114 196.692 362.722 171.934 362.722 141.393C362.722 110.853 338.114 86.0947 307.757 86.0947C277.401 86.0947 252.792 110.853 252.792 141.393C252.792 171.934 277.401 196.692 307.757 196.692Z" fill="white"/>
<path d="M326.727 158.773C326.727 168.072 324.222 176.226 320.476 181.884C316.701 187.587 312.135 190.184 307.895 190.184C303.655 190.184 299.089 187.587 295.314 181.884C291.569 176.226 289.063 168.072 289.063 158.773C289.063 149.474 291.569 141.32 295.314 135.662C299.089 129.959 303.655 127.362 307.895 127.362C312.135 127.362 316.701 129.959 320.476 135.662C324.222 141.32 326.727 149.474 326.727 158.773Z" stroke="black" stroke-width="11.6039"/>
<path d="M85.2076 158.773C85.2076 168.072 82.702 176.226 78.9564 181.884C75.1815 187.587 70.6152 190.184 66.3754 190.184C62.1356 190.184 57.5693 187.587 53.7943 181.884C50.0488 176.226 47.5431 168.072 47.5431 158.773C47.5431 149.474 50.0488 141.32 53.7943 135.662C57.5693 129.959 62.1356 127.362 66.3754 127.362C70.6152 127.362 75.1815 129.959 78.9564 135.662C82.702 141.32 85.2076 149.474 85.2076 158.773Z" stroke="black" stroke-width="11.6039"/>
<path d="M166.936 104.408C173.126 85.9679 199.209 85.9679 205.399 104.408L240.484 208.925C244.896 222.069 235.117 235.667 221.253 235.667H151.082C137.218 235.667 127.439 222.069 131.851 208.925L166.936 104.408Z" fill="#8FFF00"/>
<rect x="-45.6868" y="301.292" width="467.039" height="207.203" fill="#EF3124"/>
<rect x="-30.0071" width="435.679" height="67.7209" fill="#FE34C6"/>
<path d="M281.372 257C228.425 323.667 142.583 323.667 89.6597 257" stroke="white" stroke-width="47.9282" stroke-miterlimit="10" stroke-linecap="round"/>
</g>
<defs>
<clipPath id="clip0_4010_69244">
<rect width="375" height="353" fill="white"/>
</clipPath>
</defs>
</svg>
