<svg width="352" height="100" viewBox="0 0 352 100" fill="none" xmlns="http://www.w3.org/2000/svg">
<path d="M15.4965 61.2382C7.68785 62.0229 1.83652 57.041 1.27394 49.3937C0.708723 41.7104 5.7492 35.6701 13.5579 34.8854C22.2262 34.0143 25.7199 39.8119 26.3968 42.6373L18.9464 43.386C18.5074 42.8153 17.0501 41.1533 14.0412 41.4557C10.4234 41.8192 8.49083 44.9792 8.76024 48.6414C9.02964 52.3035 11.3954 55.0315 15.0132 54.668C18.0937 54.3584 19.2537 52.4696 19.6029 51.8196L27.0175 51.0745C26.8336 53.4801 24.4514 60.3383 15.4965 61.2382ZM29.0402 59.4432L27.643 40.4505L40.538 39.1547C44.8722 38.7191 47.3895 40.5639 47.6087 43.5439C47.7777 45.8417 46.4095 47.3536 45.0084 47.9284C46.7979 48.2187 48.5513 49.4893 48.7467 52.1461C48.9791 55.3056 46.735 57.665 42.0785 58.1329L29.0402 59.4432ZM38.7654 43.9985L35.0043 44.3765L35.2024 47.0692L38.9635 46.6912C40.0381 46.5833 40.7612 46.1127 40.6952 45.2152C40.6212 44.2099 39.84 43.8905 38.7654 43.9985ZM39.6718 50.9241L35.5167 51.3417L35.7201 54.1062L39.8752 53.6886C41.1289 53.5627 41.7393 53.0311 41.668 52.0617C41.6072 51.236 40.9255 50.7981 39.6718 50.9241ZM58.6697 36.8262C64.7232 36.2179 69.527 39.7137 69.9707 45.7454C70.4118 51.7412 66.1944 56.2159 60.1409 56.8242C54.0157 57.4397 49.2066 53.8721 48.7655 47.8763C48.3218 41.8446 52.5445 37.4418 58.6697 36.8262ZM59.6945 50.7566C61.8437 50.5406 63.1165 48.7128 62.9501 46.4509C62.7863 44.2249 61.2652 42.6779 59.1161 42.8938C56.9311 43.1134 55.6224 44.9448 55.7862 47.1708C55.9526 49.4327 57.5095 50.9762 59.6945 50.7566ZM82.4893 35.8793C87.8264 35.343 91.3581 38.7134 91.7542 44.0989C92.19 50.0229 87.8308 54.0416 81.9206 54.6355C75.688 55.2619 71.1176 51.9958 70.5735 44.5998C70.4705 43.1996 70.3807 41.9789 70.3957 40.7115C70.4854 34.0836 73.2633 30.1515 81.3483 28.2178L88.6174 26.4746L89.0506 32.3627L81.8531 34.0987C77.8478 35.0799 76.3868 36.3117 76.1682 39.2272C77.2646 37.4532 79.4088 36.1889 82.4893 35.8793ZM81.4874 48.7474C83.8157 48.5135 84.8921 46.9586 84.7468 44.9839C84.6042 43.0451 83.3165 41.7278 80.9882 41.9618C78.6599 42.1958 77.5835 43.7507 77.7262 45.6894C77.8714 47.6641 79.1591 48.9814 81.4874 48.7474ZM101.909 32.481C107.963 31.8727 112.767 35.3685 113.21 41.4002C113.651 47.396 109.434 51.8707 103.38 52.479C97.2553 53.0945 92.4462 49.5269 92.0051 43.5311C91.5614 37.4994 95.7841 33.0966 101.909 32.481ZM102.934 46.4114C105.083 46.1954 106.356 44.3676 106.19 42.1057C106.026 39.8797 104.505 38.3327 102.356 38.5487C100.171 38.7682 98.862 40.5996 99.0257 42.8256C99.1921 45.0875 100.749 46.631 102.934 46.4114ZM120.032 55.6884L113.728 56.3219L112.912 45.2279L114.595 45.0587C115.474 43.2705 116.242 40.9509 116.433 37.1702L116.737 31.4974L133.644 29.7984L134.618 43.0466L137.663 42.7406L138.479 53.8346L132.175 54.4682L131.781 49.1186L119.639 50.3389L120.032 55.6884ZM127.598 43.7521L127.046 36.2484L122.891 36.6659L122.865 36.8131C122.677 40.6297 122.28 42.5866 121.473 44.3676L127.598 43.7521ZM151.202 44.5991C150.95 45.0946 149.446 47.7052 145.577 48.0939C140.921 48.5619 136.992 45.1951 136.541 39.0557C136.092 32.9522 139.471 28.8512 144.163 28.3796C147.96 27.9981 149.741 30.1339 150.059 30.5359L149.885 28.1663L156.941 27.4572L158.338 46.4499L151.389 47.1482L151.202 44.5991ZM150.654 37.6375C150.49 35.4115 148.969 33.8645 146.855 34.0768C144.742 34.2892 143.469 36.117 143.633 38.343C143.799 40.6049 145.32 42.152 147.434 41.9396C149.547 41.7272 150.82 39.8994 150.654 37.6375ZM167.174 45.562L165.776 26.5693L178.672 25.2735C183.006 24.8379 185.523 26.6827 185.742 29.6627C185.911 31.9605 184.543 33.4724 183.142 34.0472C184.931 34.3376 186.685 35.6081 186.88 38.2649C187.113 41.4244 184.869 43.7838 180.212 44.2518L167.174 45.562ZM176.899 30.1173L173.138 30.4953L173.336 33.188L177.097 32.8101C178.172 32.7021 178.895 32.2316 178.829 31.334C178.755 30.3287 177.973 30.0094 176.899 30.1173ZM177.805 37.0429L173.65 37.4605L173.854 40.225L178.009 39.8075C179.262 39.6815 179.873 39.1499 179.801 38.1806C179.741 37.3548 179.059 36.9169 177.805 37.0429ZM187.169 24.4196L194.19 23.7141L194.596 29.2431L201.187 28.5808C206.775 28.0193 208.959 30.7294 209.236 34.4993C209.492 37.9818 207.765 41.4829 202.213 42.0408L188.566 43.4123L187.169 24.4196ZM211.885 41.0689L210.487 22.0763L217.58 21.3636L218.977 40.3562L211.885 41.0689ZM200.278 33.8804L194.977 34.4132L195.206 37.5367L200.508 37.004C201.69 36.8852 202.298 36.3178 202.216 35.2048C202.147 34.2713 201.46 33.7616 200.278 33.8804ZM231.572 20.8979C236.909 20.3616 240.44 23.732 240.837 29.1174C241.272 35.0414 236.913 39.0602 231.003 39.6541C224.77 40.2804 220.2 37.0144 219.656 29.6183C219.553 28.2181 219.463 26.9974 219.478 25.73C219.568 19.1022 222.346 15.17 230.431 13.2363L237.7 11.4931L238.133 17.3812L230.935 19.1172C226.93 20.0984 225.469 21.3303 225.251 24.2457C226.347 22.4718 228.491 21.2074 231.572 20.8979ZM230.57 33.766C232.898 33.532 233.974 31.9771 233.829 30.0025C233.686 28.0637 232.399 26.7464 230.07 26.9803C227.742 27.2143 226.666 28.7692 226.808 30.708C226.954 32.6826 228.241 34 230.57 33.766ZM250.992 17.4996C257.045 16.8913 261.849 20.3871 262.293 26.4188C262.734 32.4146 258.516 36.8893 252.463 37.4976C246.338 38.1131 241.528 34.5455 241.087 28.5497C240.644 22.518 244.866 18.1151 250.992 17.4996ZM252.016 31.43C254.166 31.214 255.438 29.3862 255.272 27.1243C255.108 24.8983 253.587 23.3512 251.438 23.5672C249.253 23.7868 247.944 25.6182 248.108 27.8442C248.274 30.1061 249.831 31.6495 252.016 31.43ZM271.013 32.5591L271.7 41.8939L264.751 42.5922L262.855 16.8138L269.911 16.1047L270.101 18.6897C270.254 18.3127 271.89 15.5441 275.723 15.159C280.451 14.6838 284.415 18.047 284.864 24.1505C285.313 30.254 281.901 34.3946 277.173 34.8697C273.233 35.2657 271.298 33.0006 271.013 32.5591ZM270.537 25.5903C270.706 27.8881 272.224 29.3993 274.481 29.1725C276.702 28.9493 277.941 27.161 277.772 24.8632C277.606 22.6013 276.123 21.0866 273.902 21.3097C271.646 21.5365 270.37 23.3284 270.537 25.5903ZM299.969 29.6493C299.717 30.1448 298.213 32.7554 294.345 33.1442C289.688 33.6121 285.76 30.2453 285.308 24.1059C284.859 18.0024 288.238 13.9014 292.93 13.4298C296.727 13.0483 298.508 15.1841 298.826 15.5861L298.652 13.2165L305.709 12.5074L307.106 31.5001L300.157 32.1984L299.969 29.6493ZM299.421 22.6877C299.257 20.4617 297.736 18.9147 295.623 19.127C293.509 19.3394 292.237 21.1672 292.4 23.3932C292.567 25.6551 294.088 27.2022 296.201 26.9898C298.315 26.7774 299.587 24.9496 299.421 22.6877ZM315.701 21.9559L315.371 17.468L347.358 14.2536L347.688 18.7415L315.701 21.9559ZM54.8058 87.999L53.4086 69.0063L73.4317 66.9942L74.8289 85.9868L67.8083 86.6923L66.8337 73.4441L60.8518 74.0453L61.8264 87.2935L54.8058 87.999ZM80.807 92.3666L83.1138 84.9734L73.2406 67.0134L81.1925 66.2143L85.936 75.7562L89.1445 65.4152L96.2726 64.6989L87.8277 91.6611L80.807 92.3666ZM103.072 83.1487L102.097 69.9005L95.2915 70.5844L94.8689 64.8399L115.501 62.7666L115.924 68.511L109.118 69.195L110.092 82.4432L103.072 83.1487ZM116.431 62.6731L123.452 61.9676L123.859 67.4966L130.45 66.8343C136.038 66.2728 138.222 68.9829 138.499 72.7527C138.755 76.2353 137.028 79.7364 131.476 80.2943L117.829 81.6657L116.431 62.6731ZM129.54 72.1339L124.239 72.6666L124.469 75.7902L129.77 75.2575C130.952 75.1387 131.56 74.5712 131.478 73.4583C131.41 72.5248 130.723 72.0151 129.54 72.1339ZM146.726 78.7618L145.329 59.7691L152.421 59.0564L152.966 66.4524L158.976 58.3977L167.537 57.5374L160.105 67.3625L169.436 76.4797L160.445 77.3832L153.232 70.0786L153.819 78.0491L146.726 78.7618ZM179.324 82.4666L181.63 75.0734L171.757 57.1133L179.709 56.3142L184.452 65.8562L187.661 55.5151L194.789 54.7988L186.344 81.761L179.324 82.4666ZM206.938 60.5585C206.655 60.1529 205.832 59.2591 204.184 59.4247C202.178 59.6262 201.118 61.3965 201.287 63.6943C201.458 66.028 202.798 67.5572 204.804 67.3556C206.523 67.1828 207.234 66.0625 207.387 65.6854L214.157 65.0051C214.182 68.2939 211.695 72.7394 205.032 73.4089C199.373 73.9776 194.692 70.6865 194.23 64.4035C193.773 58.1922 197.902 53.9797 203.49 53.4181C210.116 52.7522 213.211 56.5644 213.779 59.871L206.938 60.5585ZM215.716 71.829L214.318 52.8363L234.341 50.8242L235.739 69.8168L228.718 70.5224L227.743 57.2742L221.762 57.8753L222.736 71.1235L215.716 71.829ZM245.97 49.1493C252.274 48.5158 256.599 51.8788 257.056 58.09L257.164 59.5621L243.373 60.9479C243.836 62.8184 245.366 64.0028 247.444 63.794C249.092 63.6284 249.94 62.8922 250.167 62.5439L257.151 61.8419C257.019 64.4594 254.461 68.4417 247.835 69.1076C241.101 69.7844 236.716 66.1018 236.28 60.1778C235.829 54.0384 239.773 49.772 245.97 49.1493ZM246.331 54.068C244.54 54.248 243.358 55.3433 243.116 56.9591L249.922 56.2751C249.447 54.7314 248.087 53.8916 246.331 54.068ZM263.803 66.9966L256.066 67.7741L263.659 57.6796L254.669 48.7814L263.66 47.8779L267.833 52.1243L271.612 47.0788L279.42 46.2941L271.924 56.2342L280.818 65.2868L272.185 66.1543L267.748 61.7537L263.803 66.9966ZM284.607 71.8866L286.913 64.4934L277.04 46.5333L284.992 45.7342L289.735 55.2762L292.944 44.9351L300.072 44.2188L291.627 71.181L284.607 71.8866Z" fill="white"/>
</svg>
