<svg width="321" height="87" viewBox="0 0 321 87" fill="none" xmlns="http://www.w3.org/2000/svg">
<path d="M13.6915 77.9827L11.0982 58.9344L1.96737 60.427L1.11263 54.1489L26.622 49.9789L27.4768 56.257L18.346 57.7496L20.9393 76.7979L13.6915 77.9827ZM30.3485 75.2598L27.7795 56.3899L40.5697 54.299C44.8686 53.5963 47.4952 55.2819 47.8983 58.2426C48.2091 60.5255 46.937 62.1191 45.5741 62.7795C47.3781 62.9586 49.2067 64.1183 49.5661 66.758C49.9934 69.897 47.8996 72.3907 43.2809 73.1457L30.3485 75.2598ZM39.1 59.2433L35.3695 59.8531L35.7338 62.5284L39.4642 61.9186C40.5301 61.7443 41.2228 61.23 41.1014 60.3382C40.9654 59.3394 40.1659 59.069 39.1 59.2433ZM40.433 66.0995L36.3117 66.7732L36.6856 69.5199L40.8069 68.8462C42.0504 68.6429 42.6268 68.0747 42.4957 67.1115C42.384 66.2911 41.6765 65.8963 40.433 66.0995ZM58.5227 50.8538C64.527 49.8723 69.5378 53.0643 70.3537 59.057C71.1647 65.014 67.232 69.741 61.2277 70.7225C55.1524 71.7156 50.1318 68.4523 49.3208 62.4952C48.5049 56.5025 52.4473 51.8469 58.5227 50.8538ZM60.407 64.6941C62.5387 64.3456 63.696 62.4426 63.3901 60.1953C63.089 57.9837 61.4751 56.5337 59.3434 56.8822C57.1762 57.2364 55.9833 59.1453 56.2844 61.3569C56.5904 63.6042 58.2397 65.0484 60.407 64.6941ZM79.4374 64.6463L80.7 73.9207L73.8075 75.0474L70.3206 49.4357L77.3197 48.2916L77.6694 50.8599C77.7984 50.4741 79.2607 47.6096 83.0623 46.9882C87.752 46.2216 91.9165 49.3331 92.7421 55.3972C93.5677 61.4612 90.4182 65.8049 85.7285 66.5715C81.8203 67.2104 79.7492 65.0693 79.4374 64.6463ZM78.5307 57.7203C78.8416 60.0032 80.4506 61.4176 82.6889 61.0517C84.8916 60.6916 86.0183 58.8301 85.7075 56.5471C85.4015 54.2999 83.828 52.8797 81.6253 53.2398C79.387 53.6057 78.2248 55.473 78.5307 57.7203ZM95.3572 64.6329L92.7882 45.7629L99.6807 44.6362L101.002 54.3387L106.502 43.5211L113.395 42.3944L115.964 61.2643L109.071 62.3911L107.75 52.6886L102.25 63.5062L95.3572 64.6329ZM124.749 59.8283L122.18 40.9584L129.072 39.8316L130.393 49.5341L135.894 38.7165L142.786 37.5898L145.355 56.4597L138.463 57.5865L137.142 47.884L131.641 58.7016L124.749 59.8283ZM158.95 59.6708L152.697 60.6929L151.196 49.6706L152.866 49.3976C153.632 47.5585 154.255 45.1959 154.212 41.4106L154.165 35.7298L170.934 32.9885L172.726 46.1511L175.746 45.6574L177.247 56.6797L170.994 57.7019L170.27 52.3869L158.226 54.3558L158.95 59.6708ZM165.763 47.2894L164.748 39.8342L160.626 40.5079L160.61 40.6564C160.658 44.4773 160.383 46.455 159.687 48.2825L165.763 47.2894ZM183.702 30.3908C189.706 29.4093 194.717 32.6013 195.533 38.594C196.344 44.5511 192.411 49.278 186.407 50.2595C180.332 51.2527 175.311 47.9893 174.5 42.0323C173.684 36.0395 177.627 31.384 183.702 30.3908ZM185.586 44.2311C187.718 43.8827 188.875 41.9796 188.57 39.7324C188.268 37.5208 186.655 36.0707 184.523 36.4192C182.356 36.7735 181.163 38.6823 181.464 40.8939C181.77 43.1412 183.419 44.5854 185.586 44.2311ZM208.268 33.9232C207.961 33.5358 207.084 32.6947 205.45 32.9618C203.46 33.2871 202.511 35.1196 202.822 37.4025C203.138 39.7211 204.569 41.1645 206.559 40.8393C208.264 40.5605 208.905 39.3983 209.034 39.0126L215.749 37.9149C215.977 41.1958 213.77 45.7866 207.161 46.8669C201.548 47.7845 196.673 44.7891 195.823 38.5467C194.983 32.3756 198.843 27.9158 204.385 27.0098C210.958 25.9353 214.283 29.5488 215.054 32.8139L208.268 33.9232ZM223.198 43.7349L221.406 30.5723L214.655 31.6758L213.878 25.9685L234.343 22.6232L235.12 28.3305L228.369 29.434L230.161 42.5966L223.198 43.7349ZM237.835 41.3422L235.266 22.4723L242.158 21.3456L243.479 31.0481L248.979 20.2305L255.872 19.1038L258.441 37.9737L251.549 39.1004L250.228 29.3979L244.727 40.2155L237.835 41.3422ZM260.578 37.6244L258.009 18.7545L273.641 16.199L274.419 21.9064L265.75 23.3235L267.542 36.486L260.578 37.6244ZM289.95 30.234C289.729 30.7442 288.389 33.4428 284.552 34.07C279.933 34.825 275.804 31.7077 274.974 25.6079C274.148 19.5439 277.267 15.2417 281.921 14.4809C285.687 13.8653 287.597 15.8868 287.939 16.2684L287.619 13.9142L294.618 12.77L297.187 31.6399L290.295 32.7666L289.95 30.234ZM288.972 23.3197C288.671 21.1081 287.057 19.658 284.961 20.0007C282.865 20.3434 281.707 22.2464 282.008 24.458C282.314 26.7053 283.928 28.1553 286.024 27.8126C288.121 27.47 289.278 25.5669 288.972 23.3197ZM306.255 4.19472C307.285 4.02629 307.579 3.24898 307.472 2.46423L307.399 1.92916L312.693 1.0638L312.78 1.70587C313.237 5.05894 311.631 8.20218 306.905 8.97462C302.18 9.74706 299.807 7.25429 299.35 3.90122L299.263 3.25915L304.557 2.39378L304.63 2.92885C304.736 3.71361 305.189 4.36895 306.255 4.19472ZM299.374 31.2825L296.805 12.4126L303.697 11.2859L305.018 20.9883L310.519 10.1708L317.411 9.04404L319.98 27.914L313.088 29.0407L311.767 19.3382L306.266 30.1558L299.374 31.2825Z" fill="white"/>
</svg>
