<svg width="323" height="69" viewBox="0 0 323 69" fill="none" xmlns="http://www.w3.org/2000/svg">
<path d="M10.3191 28.7041L12.8593 9.64865L3.65902 8.6716L4.49623 2.39116L30.1997 5.12082L29.3625 11.4013L20.1622 10.4242L17.622 29.4796L10.3191 28.7041ZM27.1028 30.4865L29.6192 11.6095L42.5067 12.9781C46.8384 13.4381 48.9252 15.7587 48.5304 18.7205C48.2259 21.0043 46.5774 22.2045 45.0884 22.4806C46.7807 23.1308 48.2372 24.733 47.8851 27.3737C47.4665 30.5139 44.7874 32.3646 40.1335 31.8703L27.1028 30.4865ZM39.781 17.3571L36.0221 16.9579L35.6654 19.6342L39.4242 20.0334C40.4982 20.1475 41.3023 19.8348 41.4212 18.9427C41.5544 17.9435 40.8549 17.4711 39.781 17.3571ZM39.2519 24.3217L35.0993 23.8807L34.733 26.6284L38.8856 27.0694C40.1386 27.2024 40.8448 26.807 40.9733 25.8435C41.0827 25.0227 40.5049 24.4547 39.2519 24.3217ZM60.7314 14.4069C66.7814 15.0494 70.7687 19.4537 69.9696 25.4486C69.1752 31.4079 64.1318 34.9256 58.0818 34.2831C51.9602 33.633 47.9824 29.1573 48.7768 23.198C49.5759 17.203 54.6098 13.7568 60.7314 14.4069ZM58.8857 28.2524C61.0336 28.4805 62.6534 26.9516 62.953 24.7035C63.248 22.4911 62.0754 20.6656 59.9275 20.4375C57.7438 20.2056 56.0882 21.7307 55.7933 23.9432C55.4936 26.1913 56.702 28.0205 58.8857 28.2524ZM77.2502 33.2426L76.0134 42.5205L69.0685 41.783L72.484 16.1616L79.5363 16.9106L79.1938 19.4799C79.4204 19.142 81.5886 16.7666 85.4191 17.1734C90.1445 17.6753 93.337 21.778 92.5284 27.8444C91.7197 33.9107 87.5329 37.266 82.8075 36.7641C78.8697 36.3459 77.439 33.7331 77.2502 33.2426ZM78.2089 26.3236C77.9044 28.6074 79.0818 30.3972 81.3371 30.6367C83.5566 30.8724 85.1358 29.3754 85.4402 27.0916C85.7399 24.8435 84.5984 23.0575 82.3788 22.8218C80.1235 22.5823 78.5086 24.0755 78.2089 26.3236ZM92.606 37.4428L95.1224 18.5658L102.067 19.3034L100.774 29.0095L108.941 20.0333L115.886 20.7708L113.369 39.6478L106.424 38.9103L107.718 29.2042L99.551 38.1804L92.606 37.4428ZM122.221 40.5879L124.737 21.7109L131.682 22.4484L130.389 32.1546L138.556 23.1784L145.501 23.9159L142.984 42.7929L136.039 42.0554L137.333 32.3492L129.166 41.3254L122.221 40.5879ZM155.244 49.4871L148.944 48.818L150.413 37.7916L152.096 37.9702C153.322 36.3995 154.548 34.2859 155.508 30.6242L156.966 25.1335L173.863 26.9279L172.107 40.0954L175.15 40.4186L173.68 51.445L167.38 50.7759L168.089 45.459L155.953 44.1702L155.244 49.4871ZM165.091 39.3503L166.085 31.8923L161.932 31.4512L161.878 31.5902C160.913 35.2876 160.124 37.1219 158.969 38.7002L165.091 39.3503ZM186.863 27.8019C192.913 28.4444 196.9 32.8487 196.101 38.8436C195.307 44.8029 190.263 48.3205 184.213 47.678C178.092 47.0279 174.114 42.5523 174.908 36.593C175.708 30.598 180.741 27.1518 186.863 27.8019ZM185.017 41.6474C187.165 41.8755 188.785 40.3466 189.085 38.0985C189.38 35.886 188.207 34.0606 186.059 33.8325C183.875 33.6006 182.22 35.1257 181.925 37.3381C181.625 39.5862 182.834 41.4155 185.017 41.6474ZM209.619 37.7097C209.425 37.2549 208.802 36.2115 207.155 36.0367C205.15 35.8238 203.75 37.3398 203.446 39.6236C203.136 41.9431 204.135 43.7138 206.139 43.9267C207.858 44.1092 208.783 43.158 209.01 42.8201L215.776 43.5387C215.128 46.7631 211.784 50.606 205.125 49.8989C199.469 49.2982 195.561 45.1194 196.393 38.8746C197.216 32.7012 202.119 29.422 207.703 30.0151C214.326 30.7184 216.576 35.083 216.456 38.4358L209.619 37.7097ZM221.419 51.1225L223.174 37.955L216.373 37.2327L217.134 31.5232L237.754 33.713L236.993 39.4225L230.191 38.7002L228.436 51.8677L221.419 51.1225ZM236.167 52.6888L238.684 33.8118L245.629 34.5493L244.335 44.2554L252.502 35.2792L259.447 36.0168L256.93 54.8938L249.985 54.1563L251.279 44.4501L243.112 53.4263L236.167 52.6888ZM259.084 55.1225L261.6 36.2455L277.352 37.9182L276.59 43.6277L267.856 42.7001L266.1 55.8676L259.084 55.1225ZM289.364 55.7687C289.016 56.2022 287.01 58.4501 283.143 58.0395C278.49 57.5452 275.333 53.4463 276.146 47.3443C276.955 41.2779 281.101 37.9545 285.791 38.4526C289.585 38.8556 290.892 41.3104 291.121 41.7691L291.435 39.4139L298.488 40.1628L295.971 59.0399L289.026 58.3023L289.364 55.7687ZM290.251 48.8422C290.546 46.6297 289.373 44.8043 287.261 44.58C285.149 44.3557 283.529 45.8846 283.234 48.097C282.935 50.3451 284.107 52.1706 286.219 52.3949C288.332 52.6192 289.951 51.0903 290.251 48.8422ZM311.979 34.9729C313.017 35.0832 313.506 34.4113 313.611 33.6262L313.682 33.091L319.016 33.6574L318.93 34.2998C318.483 37.6541 316.103 40.2602 311.341 39.7546C306.58 39.249 304.951 36.217 305.398 32.8627L305.484 32.2204L310.818 32.7868L310.747 33.3221C310.642 34.1072 310.905 34.8589 311.979 34.9729ZM298.174 59.2738L300.691 40.3968L307.636 41.1344L306.342 50.8405L314.509 41.8643L321.454 42.6019L318.938 61.4789L311.993 60.7413L313.287 51.0352L305.119 60.0114L298.174 59.2738Z" fill="white"/>
</svg>
