<svg width="233" height="111" viewBox="0 0 233 111" fill="none" xmlns="http://www.w3.org/2000/svg">
<path d="M71.737 30.7913L73.7105 5.30762L81.0685 5.87743L79.8788 21.2394L92.3029 6.74743L99.6608 7.31724L97.6873 32.8009L90.3294 32.2311L91.5135 16.9409L79.095 31.3611L71.737 30.7913ZM104.13 38.68L97.8133 38.1908L98.6721 27.1L100.359 27.2306C101.495 25.6215 102.6 23.4684 103.356 19.7717L104.507 14.2281L121.449 15.54L120.423 28.7844L123.474 29.0206L122.615 40.1114L116.298 39.6222L116.712 34.2742L104.545 33.332L104.13 38.68ZM113.388 28.2396L113.969 20.738L109.805 20.4156L109.758 20.5564C109 24.289 108.314 26.1496 107.25 27.7643L113.388 28.2396ZM134.24 16.0251C140.557 16.5143 144.321 20.5971 143.84 26.8065L143.726 28.2781L129.907 27.208C130.083 29.1353 131.416 30.5745 133.498 30.7357C135.149 30.8636 136.096 30.287 136.372 29.9834L143.372 30.5254C142.848 33.0847 139.727 36.562 133.086 36.0478C126.339 35.5252 122.564 31.1166 123.022 25.1943C123.498 19.0567 128.03 15.5442 134.24 16.0251ZM133.859 20.9423C132.064 20.8034 130.733 21.6752 130.252 23.2267L137.071 23.7548C136.835 22.1477 135.618 21.0785 133.859 20.9423ZM144.305 36.4111L145.776 17.4239L152.739 17.9632L151.983 27.7259L159.63 18.4968L166.593 19.0361L165.123 38.0232L158.16 37.484L158.916 27.7212L151.268 36.9503L144.305 36.4111ZM3.46406 56.597L4.93444 37.6099L11.9694 38.1547L11.4774 44.5076L17.8304 44.9996L18.3224 38.6466L25.3573 39.1914L23.8869 58.1786L16.852 57.6338L17.3856 50.7424L11.0327 50.2504L10.499 57.1418L3.46406 56.597ZM39.6044 56.8321C39.2811 57.2765 37.4052 59.5865 33.5288 59.2863C28.8628 58.925 25.4908 54.9087 25.9661 48.771C26.4386 42.6693 30.3887 39.22 35.0906 39.5841C38.8953 39.8787 40.3325 42.3009 40.5863 42.7539L40.7698 40.385L47.8406 40.9326L46.3702 59.9197L39.4071 59.3805L39.6044 56.8321ZM40.1078 49.8662C40.2801 47.6408 39.0109 45.8455 36.8933 45.6815C34.7756 45.5175 33.2451 47.096 33.0728 49.3214C32.8977 51.5826 34.1669 53.378 36.2845 53.542C38.4022 53.706 39.9326 52.1274 40.1078 49.8662ZM61.1058 61.0608L61.5533 55.2821C61.5533 55.2821 59.7779 55.3613 57.5884 55.1918C51.7021 54.7359 48.7849 52.3074 49.2546 46.2416L49.6549 41.0731L56.6898 41.6178L56.2951 46.7146C56.1478 48.6169 56.6996 49.4179 58.889 49.5874C60.7195 49.7292 61.9897 49.647 61.9897 49.647L62.5762 42.0737L69.6111 42.6185L68.1407 61.6056L61.1058 61.0608ZM70.3658 61.7779L71.8362 42.7908L78.7993 43.33L78.0433 53.0928L85.6907 43.8637L92.6538 44.4029L91.1834 63.3901L84.2203 62.8509L84.9763 53.0881L77.3289 62.3172L70.3658 61.7779ZM93.4141 63.5628L94.8845 44.5757L101.919 45.1205L101.427 51.4735L107.78 51.9654L108.272 45.6125L115.307 46.1572L113.837 65.1444L106.802 64.5996L107.336 57.7082L100.983 57.2163L100.449 64.1076L93.4141 63.5628ZM129.554 63.7979C129.231 64.2423 127.355 66.5523 123.479 66.2522C118.813 65.8908 115.441 61.8745 115.916 55.7368C116.389 49.6351 120.339 46.1858 125.041 46.5499C128.845 46.8446 130.283 49.2668 130.536 49.7197L130.72 47.3508L137.791 47.8984L136.32 66.8855L129.357 66.3463L129.554 63.7979ZM130.058 56.832C130.23 54.6067 128.961 52.8113 126.843 52.6473C124.726 52.4833 123.195 54.0619 123.023 56.2872C122.848 58.5484 124.117 60.3438 126.235 60.5078C128.352 60.6718 129.883 59.0932 130.058 56.832ZM138.529 67.0566L140 48.0694L147.035 48.6142L146.543 54.9672L148.66 55.1312C150.245 50.9932 154.324 48.6732 159.241 49.054C165.199 49.5154 169.344 53.8083 168.877 59.8382C168.413 65.8323 163.651 69.5076 157.693 69.0462C152.596 68.6515 148.834 65.4715 148.108 60.8657L146.098 60.71L145.564 67.6014L138.529 67.0566ZM158.163 62.9803C160.209 63.1388 161.667 61.5546 161.842 59.2934C162.015 57.0681 160.817 55.2783 158.771 55.1199C156.69 54.9586 155.195 56.54 155.023 58.7653C154.848 61.0265 156.081 62.8191 158.163 62.9803ZM174.396 69.8341L175.421 56.5898L168.602 56.0617L169.047 50.3189L189.721 51.9199L189.276 57.6627L182.456 57.1346L181.431 70.3789L174.396 69.8341ZM201.543 59.8042C201.325 59.3541 200.646 58.3266 198.995 58.1987C196.985 58.0431 195.673 59.6024 195.495 61.8995C195.315 64.2325 196.407 65.9781 198.417 66.1338C200.14 66.2672 201.01 65.2874 201.217 64.9424L208.001 65.4678C207.533 68.7173 204.411 72.664 197.735 72.147C192.064 71.7079 187.938 67.6332 188.424 61.352C188.905 55.1425 193.612 51.7157 199.211 52.1493C205.851 52.6635 208.334 56.9721 208.399 60.3351L201.543 59.8042ZM228.121 73.9947L221.086 73.4499L221.514 67.9224L219.469 67.764L214.985 72.9774L207.232 72.377L212.732 66.1591C209.889 65.1084 208.717 62.9956 208.936 60.1601C209.223 56.4632 211.753 53.6261 217.281 54.0541L229.592 55.0075L228.121 73.9947ZM217.679 62.4259L221.915 62.7539L222.157 59.6313L217.921 59.3033C216.737 59.2116 216.052 59.664 215.966 60.7767C215.893 61.7099 216.495 62.3342 217.679 62.4259ZM69.3168 88.2038C71.578 88.379 72.7627 88.0013 72.8489 86.8886C72.9128 86.0631 72.0848 85.5657 70.4696 85.4406L67.5264 85.2127L67.8572 80.9415L70.4055 81.1388C71.8412 81.25 72.8409 80.9302 72.9104 80.0329C72.991 78.992 71.8371 78.5055 70.2579 78.3832C67.9249 78.2025 66.7675 79.16 66.3168 80.3167L59.6049 79.7969C60.3634 76.0643 63.3305 72.7194 70.7243 73.292C77.4363 73.8118 80.2319 76.4114 79.9734 79.7494C79.8038 81.9388 78.0858 83.1418 76.5091 83.453C78.4802 84.1111 80.0145 85.7465 79.8449 87.9359C79.5558 91.6687 75.7445 93.7928 68.889 93.2619C61.5669 92.6949 58.7943 88.4 58.9036 85.1226L65.6155 85.6424C65.8911 86.747 66.9838 88.0232 69.3168 88.2038ZM84.9548 99.3806L78.6377 98.8914L79.4966 87.8006L81.1835 87.9313C82.3192 86.3221 83.4247 84.1691 84.1804 80.4724L85.3318 74.9287L102.273 76.2407L101.247 89.485L104.298 89.7213L103.439 100.812L97.1224 100.323L97.5365 94.9749L85.3689 94.0326L84.9548 99.3806ZM94.2125 88.9402L94.7934 81.4387L90.6299 81.1163L90.5829 81.2571C89.8244 84.9896 89.1387 86.8502 88.0749 88.4649L94.2125 88.9402ZM115.064 76.7257C121.381 77.2149 125.145 81.2977 124.664 87.5071L124.551 88.9787L110.732 87.9086C110.908 89.8359 112.24 91.2751 114.322 91.4364C115.973 91.5642 116.921 90.9876 117.197 90.6841L124.196 91.2261C123.673 93.7853 120.551 97.2627 113.911 96.7484C107.163 96.2259 103.388 91.8173 103.847 85.895C104.322 79.7574 108.855 76.2449 115.064 76.7257ZM114.683 81.643C112.889 81.504 111.558 82.3758 111.076 83.9273L117.896 84.4554C117.659 82.8484 116.442 81.7792 114.683 81.643ZM138.016 85.9774C137.798 85.5273 137.119 84.4998 135.468 84.3719C133.458 84.2163 132.146 85.7756 131.968 88.0727C131.787 90.4058 132.88 92.1513 134.89 92.307C136.613 92.4404 137.483 91.4607 137.69 91.1156L144.474 91.641C144.006 94.8905 140.884 98.8372 134.208 98.3202C128.536 97.8811 124.411 93.8064 124.897 87.5252C125.378 81.3158 130.085 77.8889 135.684 78.3225C142.324 78.8368 144.807 83.1453 144.871 86.5083L138.016 85.9774ZM146.459 79.6625L153.494 80.2073L153.066 85.7347L159.67 86.2461C165.269 86.6798 167.018 89.7399 166.726 93.5086C166.457 96.9902 164.227 100.139 158.663 99.7086L144.988 98.6496L146.459 79.6625ZM157.978 91.3146L152.665 90.9032L152.424 94.0259L157.736 94.4373C158.92 94.529 159.605 94.0765 159.691 92.9638C159.764 92.0306 159.162 91.4063 157.978 91.3146Z" fill="white"/>
</svg>
