<svg width="307" height="49" viewBox="0 0 307 49" fill="none" xmlns="http://www.w3.org/2000/svg">
<path d="M1.02835 25.8858L3.57719 0.45324L10.9374 0.99271L9.98253 10.521L20.8613 11.3183L21.8163 1.79007L29.1765 2.32954L26.6277 27.7621L19.2674 27.2227L20.2223 17.6944L9.34352 16.897L8.38861 26.4253L1.02835 25.8858ZM42.9057 26.3933C42.5718 26.8379 40.6402 29.15 36.7626 28.8658C32.0951 28.5237 28.8063 24.53 29.4202 18.4046C30.0305 12.3151 34.066 8.85823 38.7694 9.20296C42.5752 9.48191 43.9611 11.8928 44.2052 12.3437L44.4422 9.97959L51.5152 10.498L49.6161 29.4471L42.6508 28.9366L42.9057 26.3933ZM43.5662 19.4415C43.7888 17.2206 42.5573 15.4344 40.439 15.2791C38.3207 15.1239 36.7517 16.7048 36.5291 18.9257C36.303 21.1824 37.5345 22.9686 39.6528 23.1238C41.7711 23.2791 43.3401 21.6982 43.5662 19.4415ZM51.8259 29.609L53.725 10.66L73.7951 12.131L71.8961 31.0801L64.8589 30.5643L66.1836 17.3465L60.1877 16.907L58.863 30.1248L51.8259 29.609ZM74.11 31.2424L76.0091 12.2933L82.9744 12.8038L81.998 22.547L89.8679 13.3091L96.8332 13.8196L94.9342 32.7687L87.9689 32.2581L88.9453 22.515L81.0753 31.7529L74.11 31.2424ZM99.0646 13.9831L106.102 14.4989L104.777 27.7167L110.163 28.1114L111.487 14.8937L118.524 15.4094L117.2 28.6272L122.585 29.022L123.91 15.8042L130.947 16.32L129.048 35.269L97.1655 32.9322L99.0646 13.9831ZM131.266 35.4316L133.165 16.4825L140.13 16.993L139.154 26.7362L147.024 17.4983L153.989 18.0088L152.09 36.9579L145.124 36.4474L146.101 26.7042L138.231 35.9421L131.266 35.4316ZM160.968 37.6086L162.867 18.6595L169.976 19.1806L169.236 26.5596L176.546 19.6621L185.127 20.2911L176.112 28.6873L183.73 39.277L174.719 38.6165L168.873 30.1775L168.076 38.1296L160.968 37.6086ZM193.948 20.4325C200.016 20.8772 204.145 25.149 203.542 31.1669C202.942 37.1489 198.016 40.8293 191.949 40.3845C185.809 39.9345 181.687 35.591 182.287 29.609C182.89 23.5912 187.809 19.9825 193.948 20.4325ZM192.555 34.3308C194.71 34.4887 196.279 32.9078 196.505 30.6511C196.727 28.4302 195.496 26.644 193.342 26.4861C191.151 26.3256 189.547 27.9039 189.324 30.1248C189.098 32.3815 190.365 34.1703 192.555 34.3308ZM205.549 31.8914L207.524 21.9327L224.937 23.209L223.038 42.158L216.001 41.6423L217.326 28.4245L212.802 28.0929L211.814 33.2527C210.766 38.6605 209.107 41.137 203.722 40.7423L202.034 40.6186L202.68 34.1709L203.111 34.2025C204.727 34.3209 205.165 33.92 205.549 31.8914ZM227.483 33.499L229.457 23.5403L246.871 24.8166L244.971 43.7657L237.934 43.2499L239.259 30.0321L234.735 29.7005L233.748 34.8603C232.7 40.2682 231.041 42.7446 225.655 42.3499L223.968 42.2262L224.614 35.7785L225.045 35.8101C226.661 35.9285 227.099 35.5276 227.483 33.499ZM258.622 25.1727C264.941 25.6359 268.621 29.6944 268 35.8914L267.853 37.36L254.03 36.3468C254.163 38.269 255.466 39.6996 257.548 39.8523C259.2 39.9733 260.162 39.3943 260.446 39.0904L267.447 39.6035C266.865 42.1589 263.659 45.6406 257.017 45.1537C250.267 44.659 246.583 40.2754 247.176 34.365C247.79 28.2397 252.41 24.7175 258.622 25.1727ZM258.13 30.0801C256.335 29.9486 254.981 30.8236 254.464 32.3734L261.286 32.8734C261.085 31.271 259.889 30.2091 258.13 30.0801ZM268.179 45.4667L270.078 26.5176L285.876 27.6755L285.301 33.4068L276.541 32.7646L275.216 45.9824L268.179 45.4667ZM295.827 27.8997C302.146 28.3628 305.826 32.4213 305.205 38.6183L305.058 40.0869L291.235 39.0738C291.368 40.996 292.671 42.4266 294.754 42.5792C296.405 42.7003 297.367 42.1213 297.651 41.8173L304.652 42.3305C304.071 44.8859 300.865 48.3675 294.222 47.8807C287.472 47.3859 283.789 43.0024 284.381 37.092C284.995 30.9667 289.616 27.4444 295.827 27.8997ZM295.335 32.8071C293.54 32.6755 292.186 33.5506 291.669 35.1003L298.491 35.6003C298.29 33.9979 297.094 32.936 295.335 32.8071Z" fill="white"/>
</svg>
