<svg width="162" height="146" viewBox="0 0 162 146" fill="none" xmlns="http://www.w3.org/2000/svg">
<path d="M21.4705 47.3678C21.4955 42.3239 25.6046 38.2553 30.6485 38.2802L132.075 38.7828C137.119 38.8078 141.188 42.9169 141.163 47.9609L140.915 97.9048C140.89 102.949 136.781 107.017 131.737 106.992L30.3106 106.49C25.2667 106.465 21.198 102.356 21.223 97.3118L21.4705 47.3678Z" fill="#EF3124"/>
<path d="M104.241 78.206C105.6 79.5924 107.238 80.295 109.155 80.3137C110.451 80.3264 111.619 80.027 112.661 79.4154C113.73 78.7782 114.58 77.9317 115.212 76.8757C115.87 75.82 116.205 74.6575 116.218 73.3882C116.237 71.4713 115.566 69.8197 114.207 68.4334C112.847 67.047 111.209 66.3445 109.292 66.3257C107.375 66.3069 105.724 66.9773 104.338 68.3367C102.951 69.6962 102.249 71.3343 102.23 73.2512C102.211 75.1681 102.881 76.8197 104.241 78.206Z" fill="#8FFF00"/>
<path d="M76.484 78.206C77.8435 79.5924 79.4816 80.295 81.3985 80.3137C82.6937 80.3264 83.8624 80.027 84.9047 79.4154C85.9731 78.7782 86.8233 77.9317 87.4554 76.8757C88.1134 75.82 88.4486 74.6575 88.461 73.3882C88.4798 71.4713 87.8095 69.8197 86.45 68.4334C85.0906 67.047 83.4524 66.3445 81.5355 66.3257C79.6186 66.3069 77.967 66.9773 76.5807 68.3367C75.1943 69.6962 74.4918 71.3343 74.473 73.2512C74.4542 75.1681 75.1246 76.8197 76.484 78.206Z" fill="#8FFF00"/>
<path d="M48.7277 78.206C50.0871 79.5924 51.7253 80.295 53.6422 80.3137C54.9374 80.3264 56.1061 80.027 57.1483 79.4154C58.2167 78.7782 59.067 77.9317 59.699 76.8757C60.357 75.82 60.6923 74.6575 60.7047 73.3882C60.7235 71.4713 60.0531 69.8197 58.6937 68.4334C57.3342 67.047 55.696 66.3445 53.7792 66.3257C51.8623 66.3069 50.2107 66.9773 48.8243 68.3367C47.438 69.6962 46.7354 71.3343 46.7167 73.2512C46.6979 75.1681 47.3682 76.8197 48.7277 78.206Z" fill="#8FFF00"/>
<path d="M29.7359 123.958L35.9959 103.34L65.8979 103.842L33.2217 126.498C31.4433 127.731 29.1073 126.029 29.7359 123.958Z" fill="#EF3124"/>
</svg>
