<svg width="28" height="28" viewBox="0 0 28 28" fill="none" xmlns="http://www.w3.org/2000/svg">
<rect x="1.41216" y="1.41216" width="25.1757" height="25.1757" rx="12.5878" stroke="#8FFF00" stroke-width="1.82432"/>
<path d="M14.0994 16.1501L11.9143 16.2253L11.9013 15.8498C11.8649 14.7913 12.0728 14.374 13.1913 13.6005L14.3599 12.7912C15.011 12.3415 15.489 11.8294 15.4632 11.0782C15.4326 10.1905 14.8157 9.64771 13.8256 9.68178C12.8183 9.71645 12.2449 10.4369 12.2784 11.41L12.2954 11.9051L10.1786 11.9779L10.1574 11.3634C10.0869 9.31478 11.4404 7.91795 13.7621 7.83806C16.1692 7.75523 17.5778 8.95445 17.6483 11.003C17.7029 12.5907 16.9635 13.4536 15.5771 14.3901L14.5587 15.0917C14.1754 15.3784 14.0818 15.638 14.0971 16.0818L14.0994 16.1501ZM11.8475 20.2442L11.7541 17.5298L14.3489 17.4405L14.4423 20.1549L11.8475 20.2442Z" fill="#8FFF00"/>
</svg>
