<svg width="146" height="51" viewBox="0 0 146 51" fill="none" xmlns="http://www.w3.org/2000/svg">
<path d="M0.697266 5.86133C0.697266 3.09991 2.93584 0.861328 5.69727 0.861328H140.927C143.688 0.861328 145.927 3.0999 145.927 5.86133V50.8613H0.697266V5.86133Z" fill="#EF3124"/>
<g clip-path="url(#clip0_6013_12874)">
<path d="M130.594 17.9604L126.397 22.6603V17.9604H123.359V29.8262H126.397V24.8312L130.889 29.8262H134.812L129.286 23.6089L134.411 17.9604H130.594Z" fill="white"/>
<path d="M118.005 22.3863H113.807V17.9604H110.77V29.8262H113.807V25.1474H118.005V29.8262H121.042V17.9604H118.005V22.3863Z" fill="white"/>
<mask id="mask0_6013_12874" style="mask-type:luminance" maskUnits="userSpaceOnUse" x="10" y="8" width="124" height="26">
<path d="M10.6411 8.87005H133.641V33.5674H10.6411V8.87005Z" fill="white"/>
</mask>
<g mask="url(#mask0_6013_12874)">
<path d="M29.8446 24.3866C29.772 26.5991 29.486 27.0422 28.2417 27.0422V29.8242H28.7056C31.8098 29.8242 32.5563 28.2223 32.6708 24.6606L32.7974 20.7193H35.7078V29.8242H38.7451V17.9584H30.0555L29.8446 24.3866Z" fill="white"/>
<path d="M46.0632 27.2108H44.1017V24.1968H46.0632C47.1176 24.1968 47.7504 24.6606 47.7504 25.651C47.7504 26.7259 47.1387 27.2108 46.0632 27.2108ZM46.2952 21.5625H44.1017V17.9583H41.0647V29.8242H46.3374C49.6487 29.8242 50.8297 27.6744 50.8297 25.651C50.8297 23.0377 49.1846 21.5625 46.2952 21.5625Z" fill="white"/>
<path d="M60.7204 27.2318V20.5297C62.4077 20.7615 63.4623 22.026 63.4623 23.8807C63.4623 25.7353 62.4077 26.9999 60.7204 27.2318ZM57.6834 27.2318C55.996 26.9999 54.9416 25.7353 54.9416 23.8807C54.9416 22.026 55.996 20.7615 57.6834 20.5297V27.2318ZM60.7204 17.6843V13.2793H57.6834V17.6843C54.2034 17.9795 51.8621 20.4453 51.8621 23.8807C51.8621 27.3373 54.2034 29.8031 57.6834 30.0981V34.5664H60.7204V30.0981C64.2004 29.8242 66.5415 27.3373 66.5415 23.8807C66.5415 20.4242 64.2004 17.9582 60.7204 17.6843Z" fill="white"/>
<path d="M74.8942 25.398C74.8942 26.768 73.924 27.5479 72.6585 27.5479C71.5617 27.5479 70.697 27.1474 70.697 25.967C70.697 24.8079 71.6461 24.6183 72.4688 24.6183H74.8942V25.398ZM77.9312 26.1779V22.1945C77.9312 19.286 76.0752 17.4522 72.9538 17.4522C69.7268 17.4522 68.0184 19.3914 67.8707 21.4146H70.9501C71.0556 20.9719 71.5197 20.2133 72.9538 20.2133C74.1348 20.2133 74.8942 20.7614 74.8942 22.1945H71.8781C69.1785 22.1945 67.5754 23.6064 67.5754 25.967C67.5754 28.433 69.3289 30.1191 71.857 30.1191C73.7108 30.1191 74.7399 29.2436 75.1894 28.5806C75.59 29.3813 76.476 29.8239 77.6359 29.8239H78.6905V27.0841C78.1422 27.0841 77.9312 26.8312 77.9312 26.1779Z" fill="white"/>
<path d="M90.7968 26.8304H87.5487V22.5308H90.7968C92.4839 22.5308 93.433 23.3107 93.433 24.6805C93.433 26.0927 92.4839 26.8304 90.7968 26.8304ZM90.9443 19.6434H87.5487V16.2924H95.4156V13.2785H84.364V29.8232H90.9443C94.5931 29.8232 96.6811 28.0108 96.6811 24.6805C96.6811 21.5404 94.5931 19.6434 90.9443 19.6434Z" fill="white"/>
<path d="M105.265 25.398C105.265 26.768 104.295 27.5479 103.029 27.5479C101.933 27.5479 101.068 27.1474 101.068 25.967C101.068 24.8079 102.017 24.6183 102.84 24.6183H105.265V25.398ZM108.302 26.1779V22.1945C108.302 19.286 106.446 17.4522 103.325 17.4522C100.098 17.4522 98.3893 19.3914 98.2415 21.4146H101.321C101.426 20.9719 101.891 20.2133 103.325 20.2133C104.506 20.2133 105.265 20.7614 105.265 22.1945H102.249C99.5494 22.1945 97.9463 23.6064 97.9463 25.967C97.9463 28.433 99.7 30.1191 102.228 30.1191C104.082 30.1191 105.111 29.2436 105.56 28.5806C105.961 29.3813 106.847 29.8239 108.007 29.8239H109.061V27.0841C108.513 27.0841 108.302 26.8312 108.302 26.1779Z" fill="white"/>
<path d="M17.6118 23.5647L19.8897 16.7993H19.9741L22.1253 23.5647H17.6118ZM22.8838 15.5505C22.4207 14.1705 21.8871 13.0806 20.0585 13.0806C18.2297 13.0806 17.6618 14.1662 17.1744 15.5505L12.1494 29.8242H15.4817L16.6418 26.4311H23.0533L24.129 29.8242H27.6725L22.8838 15.5505Z" fill="white"/>
</g>
</g>
<defs>
<clipPath id="clip0_6013_12874">
<rect width="123" height="24.6973" fill="white" transform="translate(11.8123 13.082)"/>
</clipPath>
</defs>
</svg>
