<svg width="31" height="30" viewBox="0 0 31 30" fill="none" xmlns="http://www.w3.org/2000/svg">
<path d="M17.0632 3.95525C19.2771 4.60108 20.786 5.98771 21.5 8.15952C22.3585 10.7704 21.4749 13.5077 19.2986 15.1947C19.2534 15.2298 19.209 15.266 19.1287 15.3298C19.3966 15.4433 19.6385 15.541 19.8764 15.6474C22.2694 16.7176 24.0598 18.4276 25.256 20.7542C25.9025 22.0116 26.2859 23.3481 26.3829 24.7649C26.4006 25.0238 26.422 25.2817 26.4253 25.5414C26.4271 25.6809 26.3684 25.7353 26.2303 25.7341C25.7944 25.7301 25.3582 25.726 24.9225 25.7358C24.7369 25.74 24.6815 25.6737 24.6733 25.4895C24.6193 24.2827 24.3879 23.1133 23.8922 22.0048C23.0878 20.2059 21.8348 18.804 20.1521 17.7818C18.7575 16.9346 17.2328 16.5058 15.6142 16.4881C13.5714 16.4657 11.6997 17.0443 10.0433 18.2714C8.76387 19.2191 7.78439 20.4095 7.11234 21.8503C6.64043 22.8621 6.36634 23.9275 6.29316 25.0432C6.28494 25.1685 6.25012 25.2948 6.25993 25.4181C6.28031 25.6745 6.17617 25.7511 5.92542 25.7379C5.54082 25.7177 5.15404 25.7236 4.76882 25.7368C4.5564 25.7441 4.49635 25.6628 4.50017 25.4591C4.52586 24.0867 4.79108 22.7634 5.32439 21.4999C6.41255 18.9218 8.22964 17.0263 10.7332 15.7866C11.0618 15.6239 11.4054 15.4914 11.7775 15.3295C10.2358 14.1245 9.29492 12.5952 9.13907 10.6456C9.02041 9.16114 9.37681 7.78914 10.2034 6.54004C11.6509 4.3527 14.5046 3.26757 17.0632 3.95525ZM10.8781 10.2784C10.9311 11.24 11.239 12.1042 11.8087 12.8881C12.9429 14.4486 15.1902 15.1345 17.0009 14.4495C19.4955 13.5059 20.6788 10.8419 19.7023 8.36815C18.9545 6.47391 16.8658 5.26539 14.8499 5.56055C12.5146 5.90249 10.8703 7.83592 10.8781 10.2784Z" fill="#8FFF00"/>
</svg>
