<svg width="144" height="107" viewBox="0 0 144 107" fill="none" xmlns="http://www.w3.org/2000/svg">
<path d="M111.045 39.9324L132.585 46.9756L143.44 13.867L118.881 6.06801C109.845 3.19865 100.519 1.34766 91.0713 0.547054L88.3561 0.31648C87.4752 4.45827 80.6891 7.68203 72.4449 7.68203C64.2006 7.68203 57.1152 4.31095 56.4866 0.034668L53.4079 0.267377C43.2052 1.03809 33.1351 3.03426 23.4114 6.21319L0 13.867L10.8548 46.9756L32.1217 40.0221C33.5029 39.5695 34.9054 40.6562 34.8113 42.1037L30.6572 106.314H112.516L108.355 42.014C108.261 40.5644 109.664 39.4798 111.045 39.9324Z" fill="#FE34C6"/>
<rect x="71.7173" y="17.5032" width="29.7579" height="29.8796" rx="3.42486" fill="#EF3124"/>
<path fill-rule="evenodd" clip-rule="evenodd" d="M81.5474 42.6948V40.3566H91.6458V42.6948H81.5474ZM85.1538 32.8405H87.9607L86.6229 28.1498H86.5703L85.1541 32.8405H85.1538ZM88.4323 27.2837L91.4098 37.1801H89.2065L88.5376 34.8279H84.5506L83.829 37.1804H81.7576L84.8822 27.284C85.1848 26.3241 85.5381 25.5714 86.6752 25.5714C87.8124 25.5714 88.1443 26.3272 88.4323 27.284V27.2837Z" fill="white"/>
<rect x="71.7173" y="17.5032" width="29.7579" height="4.12582" fill="#8FFF00"/>
</svg>
