<svg width="306" height="82" viewBox="0 0 306 82" fill="none" xmlns="http://www.w3.org/2000/svg">
<path d="M81.8338 32.9565C74.1044 32.5515 68.5518 26.9992 69.1802 19.0681C69.8172 11.0293 76.2276 6.21195 83.9211 6.6151C91.6145 7.01824 97.2116 12.4648 96.5746 20.5036C95.9462 28.4347 89.5272 33.3597 81.8338 32.9565ZM82.3513 26.425C86.234 26.6285 88.8011 23.844 89.0969 20.1117C89.3926 16.3794 87.2862 13.3501 83.4035 13.1466C79.5568 12.9451 76.9537 15.7276 76.658 19.4599C76.3622 23.1922 78.4687 26.2215 82.3513 26.425ZM102.705 33.6178L103.755 20.3753L96.924 20.0173L97.379 14.2753L118.087 15.3604L117.632 21.1024L110.801 20.7445L109.752 33.987L102.705 33.6178ZM120.7 39.9302L114.373 39.5986L115.251 28.5094L116.941 28.5979C118.081 26.9639 119.192 24.7879 119.956 21.0801L121.118 15.5193L138.087 16.4085L137.038 29.651L140.093 29.8111L139.215 40.9003L132.887 40.5688L133.311 35.2215L121.124 34.5829L120.7 39.9302ZM129.991 29.2817L130.586 21.7812L126.415 21.5627L126.368 21.7044C125.602 25.4481 124.912 27.3219 123.844 28.9596L129.991 29.2817ZM141.895 16.608L148.942 16.9773L148.504 22.5039L155.119 22.8506C160.727 23.1445 162.474 26.155 162.175 29.9231C161.9 33.4042 159.661 36.6023 154.088 36.3103L140.391 35.5925L141.895 16.608ZM163.795 36.8189L165.299 17.8344L172.418 18.2074L170.913 37.1919L163.795 36.8189ZM153.415 27.9506L148.094 27.6717L147.847 30.794L153.168 31.0728C154.354 31.1349 155.041 30.6664 155.129 29.5539C155.203 28.6208 154.601 28.0127 153.415 27.9506ZM178.524 37.5907L170.759 37.1838L179.797 28.36L172.263 18.1993L181.287 18.6722L184.767 23.5032L189.268 19.0904L197.105 19.5011L188.186 28.187L195.601 38.4855L186.937 38.0315L183.219 33.0079L178.524 37.5907ZM208.246 36.5896C207.922 37.0411 206.039 39.3929 202.156 39.1894C197.482 38.9445 194.111 35.0201 194.597 28.8833C195.081 22.7824 199.044 19.2423 203.753 19.4891C207.564 19.6887 209 22.0703 209.253 22.516L209.441 20.1475L216.523 20.5186L215.019 39.5031L208.044 39.1376L208.246 36.5896ZM208.762 29.6255C208.938 27.4005 207.67 25.6403 205.549 25.5292C203.428 25.418 201.892 27.0313 201.716 29.2563C201.537 31.5172 202.805 33.2774 204.926 33.3885C207.047 33.4997 208.583 31.8864 208.762 29.6255ZM229.718 14.6153C230.76 14.6699 231.213 13.9729 231.275 13.1834L231.318 12.6451L236.675 12.9258L236.623 13.5717C236.356 16.9452 234.118 19.6748 229.337 19.4242C224.555 19.1737 222.767 16.2331 223.034 12.8596L223.085 12.2137L228.442 12.4944L228.399 13.0327C228.337 13.8222 228.639 14.5588 229.718 14.6153ZM217.231 39.619L218.736 20.6345L225.71 21L224.937 30.7614L232.613 21.3617L239.587 21.7271L238.083 40.7116L231.108 40.3462L231.882 30.5848L224.206 39.9845L217.231 39.619ZM1.44493 59.3431L2.94925 40.3586L9.92369 40.7241L9.15019 50.4855L16.8262 41.0858L23.8006 41.4512L22.2963 60.4357L15.3219 60.0703L16.0954 50.3089L8.41936 59.7086L1.44493 59.3431ZM31.1857 60.9015L32.69 41.9171L39.7363 42.2863L39.233 48.6384L45.5963 48.9718L46.0996 42.6197L53.146 42.989L51.6416 61.9735L44.5953 61.6042L45.1413 54.7138L38.778 54.3804L38.232 61.2708L31.1857 60.9015ZM67.3888 60.24C67.0643 60.6915 65.1812 63.0433 61.2985 62.8398C56.6249 62.5949 53.2537 58.6705 53.74 52.5337C54.2234 46.4329 58.1861 42.8927 62.8957 43.1395C66.7065 43.3392 68.1422 45.7207 68.3957 46.1665L68.5834 43.7979L75.6657 44.169L74.1614 63.1535L67.1869 62.788L67.3888 60.24ZM67.9046 53.276C68.0809 51.0509 66.8124 49.2908 64.6914 49.1796C62.5703 49.0685 61.0345 50.6817 60.8582 52.9067C60.6791 55.1676 61.9475 56.9278 64.0686 57.039C66.1897 57.1501 67.7254 55.5369 67.9046 53.276ZM89.5603 45.834C94.9169 46.1147 97.8955 49.9826 97.469 55.3657C96.9998 61.2871 92.0806 64.597 86.1487 64.2862C79.8933 63.9584 75.8721 60.0359 76.4579 52.6431C76.5688 51.2435 76.6655 50.0233 76.8729 48.7729C77.9685 42.2356 81.3115 38.7711 89.5965 38.0881L97.046 37.4694L96.5796 43.355L89.202 43.9774C85.0941 44.3387 83.4629 45.3344 82.804 48.1827C84.1571 46.596 86.4685 45.672 89.5603 45.834ZM86.6151 58.4006C88.9519 58.5231 90.252 57.1497 90.4084 55.1759C90.562 53.238 89.4894 51.7403 87.1526 51.6179C84.8158 51.4954 83.5156 52.8687 83.3621 54.8067C83.2057 56.7805 84.2783 58.2782 86.6151 58.4006ZM98.0202 64.4037L99.5246 45.4192L106.499 45.7847L105.726 55.5461L113.402 46.1464L120.376 46.5119L118.872 65.4963L111.897 65.1309L112.671 55.3695L104.995 64.7692L98.0202 64.4037ZM128.282 63.4309L127.543 72.7616L120.568 72.3962L122.61 46.6289L129.693 47L129.488 49.5839C129.696 49.2345 131.734 46.7467 135.581 46.9482C140.326 47.1969 143.734 51.1232 143.25 57.2241C142.767 63.325 138.765 66.8991 134.02 66.6505C130.065 66.4433 128.497 63.9106 128.282 63.4309ZM128.87 56.4706C128.688 58.7674 129.959 60.4917 132.224 60.6104C134.453 60.7272 135.95 59.1479 136.132 56.8511C136.311 54.5902 135.076 52.8678 132.847 52.751C130.582 52.6323 129.049 54.2097 128.87 56.4706ZM157.344 64.9537C157.02 65.4052 155.137 67.757 151.254 67.5536C146.58 67.3087 143.209 63.3842 143.695 57.2474C144.179 51.1466 148.141 47.6064 152.851 47.8532C156.662 48.0529 158.098 50.4345 158.351 50.8802L158.539 48.5116L165.621 48.8827L164.117 67.8672L157.142 67.5018L157.344 64.9537ZM157.86 57.9897C158.036 55.7647 156.768 54.0045 154.647 53.8933C152.526 53.7822 150.99 55.3954 150.814 57.6204C150.634 59.8814 151.903 61.6415 154.024 61.7527C156.145 61.8638 157.681 60.2506 157.86 57.9897ZM178.816 42.9794C179.858 43.0341 180.311 42.3371 180.373 41.5475L180.416 41.0092L185.772 41.2899L185.721 41.9359C185.454 45.3093 183.216 48.0389 178.435 47.7884C173.653 47.5378 171.865 44.5972 172.132 41.2238L172.183 40.5778L177.54 40.8585L177.497 41.3968C177.435 42.1863 177.737 42.9229 178.816 42.9794ZM166.329 67.9832L167.834 48.9987L174.808 49.3641L174.035 59.1255L181.711 49.7258L188.685 50.0913L187.181 69.0758L180.206 68.7103L180.98 58.9489L173.304 68.3486L166.329 67.9832ZM202.342 57.762C202.125 57.3181 201.446 56.3096 199.793 56.223C197.779 56.1175 196.462 57.7061 196.28 60.0029C196.095 62.3356 197.187 64.0505 199.2 64.156C200.926 64.2464 201.799 63.2471 202.007 62.8977L208.802 63.2537C208.328 66.5082 205.193 70.5242 198.507 70.1738C192.826 69.8761 188.7 65.9121 189.198 59.6318C189.69 53.4233 194.41 49.8868 200.019 50.1807C206.67 50.5292 209.15 54.7673 209.209 58.1218L202.342 57.762ZM228.943 71.2642L221.897 70.8949L222.335 65.3683L220.286 65.2609L215.785 70.5747L208.02 70.1678L213.54 63.8263C210.694 62.8483 209.523 60.7689 209.748 57.9338C210.04 54.2374 212.58 51.3434 218.117 51.6335L230.448 52.2797L228.943 71.2642ZM218.502 59.9782L222.744 60.2005L222.992 57.0782L218.75 56.856C217.563 56.7938 216.876 57.2623 216.788 58.3748C216.714 59.3079 217.316 59.916 218.502 59.9782ZM250.745 60.2983C250.527 59.8545 249.849 58.846 248.195 58.7593C246.182 58.6538 244.865 60.2425 244.683 62.5393C244.498 64.872 245.59 66.5868 247.603 66.6923C249.329 66.7827 250.202 65.7835 250.41 65.434L257.205 65.79C256.73 69.0445 253.596 73.0605 246.909 72.7101C241.229 72.4125 237.103 68.4485 237.601 62.1681C238.093 55.9596 242.813 52.4231 248.422 52.717C255.072 53.0655 257.552 57.3036 257.611 60.6581L250.745 60.2983ZM257.709 72.7715L259.213 53.787L266.187 54.1525L265.414 63.9139L273.09 54.5142L280.064 54.8796L278.56 73.8641L271.586 73.4987L272.359 63.7373L264.683 73.137L257.709 72.7715ZM282.833 65.1149L284.599 55.1173L302.036 56.0309L300.531 75.0154L293.485 74.6462L294.534 61.4037L290.004 61.1663L289.125 66.3455C288.189 71.7741 286.582 74.2845 281.19 74.0019L279.5 73.9134L280.012 67.4536L280.443 67.4762C282.061 67.561 282.491 67.1511 282.833 65.1149Z" fill="white"/>
</svg>
