<svg width="233" height="120" viewBox="0 0 233 120" fill="none" xmlns="http://www.w3.org/2000/svg">
<path d="M68.5598 45.1293L66.2336 19.6754L73.5624 18.8076L74.9647 34.1517L84.7522 17.4827L92.081 16.6149L94.4073 42.0688L87.0784 42.9366L85.6827 27.6642L75.8886 44.2615L68.5598 45.1293ZM101.725 46.6018L95.4334 47.3468L94.421 36.269L96.1012 36.0701C96.9482 34.2665 97.6746 31.9338 97.7986 28.1503L98.0025 22.4729L114.877 20.4749L116.086 33.7038L119.124 33.344L120.137 44.4218L113.845 45.1668L113.357 39.8251L101.237 41.2601L101.725 46.6018ZM109.079 34.5334L108.394 27.0407L104.247 27.5317L104.224 27.6793C104.103 31.4987 103.741 33.4623 102.965 35.2573L109.079 34.5334ZM127.532 18.469C133.824 17.724 138.208 21.01 138.775 27.2121L138.909 28.682L125.146 30.3117C125.641 32.1737 127.192 33.3309 129.266 33.0854C130.91 32.8906 131.745 32.1395 131.966 31.7872L138.937 30.9618C138.851 33.5811 136.364 37.6081 129.751 38.3912C123.03 39.1871 118.581 35.5827 118.04 29.6673C117.48 23.5369 121.348 19.2013 127.532 18.469ZM127.981 23.3806C126.194 23.5922 125.031 24.7083 124.818 26.3281L131.61 25.5238C131.109 23.9887 129.733 23.1731 127.981 23.3806ZM140.84 36.5708L139.107 17.6058L146.043 16.7846L146.934 26.536L152.907 15.9719L159.842 15.1506L161.576 34.1156L154.64 34.9368L153.749 25.1855L147.776 35.7496L140.84 36.5708ZM5.76278 83.7703L4.02959 64.8054L11.0366 63.9757L11.6166 70.3212L17.9444 69.572L17.3644 63.2264L24.3715 62.3967L26.1047 81.3617L19.0976 82.1914L18.4686 75.3081L12.1408 76.0573L12.7698 82.9406L5.76278 83.7703ZM41.3307 76.9859C41.0873 77.4858 39.6298 80.1226 35.7688 80.5798C31.1213 81.1301 27.134 77.8334 26.5737 71.703C26.0167 65.6083 29.3225 61.4481 34.0058 60.8936C37.7953 60.4449 39.6138 62.5488 39.9391 62.9452L39.7229 60.579L46.7657 59.7451L48.4989 78.7101L41.5633 79.5313L41.3307 76.9859ZM40.6593 70.0351C40.4562 67.8124 38.9079 66.2925 36.7987 66.5422C34.6894 66.792 33.4491 68.6421 33.6523 70.8648C33.8587 73.1234 35.4069 74.6433 37.5162 74.3935C39.6255 74.1438 40.8657 72.2937 40.6593 70.0351ZM63.176 76.9722L62.6485 71.2003C62.6485 71.2003 60.9164 71.6228 58.7357 71.881C52.8726 72.5752 49.5982 70.7524 49.0445 64.6936L48.5727 59.5311L55.5798 58.7015L56.045 63.7922C56.2187 65.6923 56.8952 66.3732 59.076 66.115C60.8993 65.8991 62.1341 65.5717 62.1341 65.5717L61.4428 58.0072L68.4499 57.1776L70.1831 76.1425L63.176 76.9722ZM72.3993 75.8801L70.6661 56.9151L77.6017 56.0939L78.4928 65.8453L84.4657 55.2812L91.4013 54.46L93.1345 73.4249L86.1989 74.2461L85.3077 64.4948L79.3349 75.0589L72.3993 75.8801ZM95.3563 73.1618L93.6231 54.1969L100.63 53.3672L101.21 59.7127L107.538 58.9635L106.958 52.6179L113.965 51.7883L115.698 70.7532L108.691 71.5829L108.062 64.6996L101.734 65.4488L102.363 72.3322L95.3563 73.1618ZM130.924 66.3774C130.681 66.8773 129.223 69.5141 125.362 69.9713C120.715 70.5216 116.727 67.2249 116.167 61.0945C115.61 54.9999 118.916 50.8396 123.599 50.2851C127.389 49.8364 129.207 51.9403 129.533 52.3367L129.316 49.9705L136.359 49.1366L138.092 68.1016L131.157 68.9228L130.924 66.3774ZM130.253 59.4266C130.05 57.2039 128.501 55.684 126.392 55.9338C124.283 56.1835 123.043 58.0336 123.246 60.2563C123.452 62.5149 125 64.0348 127.11 63.785C129.219 63.5353 130.459 61.6852 130.253 59.4266ZM140.293 67.8411L138.559 48.8761L145.567 48.0464L146.146 54.392L148.256 54.1422C149.12 49.7637 152.742 46.6894 157.64 46.1095C163.575 45.4068 168.368 48.8255 168.918 54.8484C169.466 60.8354 165.399 65.3756 159.465 66.0783C154.388 66.6794 150.158 64.2812 148.673 59.891L146.671 60.1281L147.3 67.0114L140.293 67.8411ZM158.911 60.0195C160.949 59.7782 162.118 57.9366 161.911 55.678C161.708 53.4553 160.231 51.927 158.194 52.1682C156.12 52.4138 154.916 54.2596 155.119 56.4823C155.325 58.7409 156.838 60.265 158.911 60.0195ZM176.017 63.6111L174.808 50.3822L168.015 51.1865L167.491 45.4504L188.083 43.0121L188.608 48.7482L181.815 49.5525L183.024 62.7814L176.017 63.6111ZM201.026 48.4737C200.736 48.0732 199.897 47.1941 198.252 47.3888C196.25 47.6259 195.221 49.4147 195.431 51.7091C195.644 54.0394 197.01 55.5446 199.012 55.3076C200.728 55.1044 201.42 53.9716 201.566 53.5919L208.322 52.7918C208.406 56.0796 205.998 60.5685 199.348 61.3559C193.699 62.0247 188.961 58.8169 188.388 52.543C187.821 46.3409 191.875 42.0559 197.452 41.3955C204.065 40.6124 207.227 44.3692 207.854 47.6652L201.026 48.4737ZM229.53 57.2748L222.522 58.1045L222.018 52.5835L219.98 52.8248L216.445 58.8241L208.723 59.7385L213.089 52.5536C210.118 52.0719 208.612 50.2209 208.353 47.3887C208.016 43.696 210.028 40.4137 215.534 39.7618L227.796 38.3098L229.53 57.2748ZM217.328 47.9205L221.546 47.421L221.261 44.302L217.043 44.8015C215.863 44.9412 215.265 45.5193 215.367 46.6307C215.452 47.5628 216.148 48.0602 217.328 47.9205ZM75.7921 102.081C78.0444 101.815 79.1458 101.213 79.0442 100.102C78.9689 99.2774 78.0716 98.9487 76.4628 99.1392L73.5313 99.4863L73.1414 95.2201L75.6797 94.9196C77.1097 94.7502 78.0389 94.2416 77.957 93.3453C77.862 92.3057 76.6462 92.051 75.0732 92.2373C72.7494 92.5124 71.7719 93.6791 71.5225 94.9045L64.8372 95.6961C64.9579 91.8767 67.3149 88.01 74.6794 87.138C81.3647 86.3464 84.5482 88.3612 84.8529 91.6953C85.0528 93.8822 83.5652 95.3992 82.0673 96.0114C84.1152 96.2763 85.8973 97.5873 86.0972 99.7741C86.4379 103.503 83.0466 106.332 76.2183 107.141C68.9253 108.004 65.4805 104.317 65.0394 101.072L71.7247 100.28C72.1805 101.313 73.4684 102.357 75.7921 102.081ZM93.0365 110.041L86.7445 110.786L85.7321 99.7087L87.4123 99.5097C88.2594 97.7062 88.9857 95.3734 89.1097 91.5899L89.3136 85.9126L106.188 83.9145L107.397 97.1434L110.436 96.7836L111.448 107.861L105.156 108.606L104.668 103.265L92.5483 104.7L93.0365 110.041ZM100.39 97.9731L99.7049 90.4803L95.5579 90.9714L95.5352 91.119C95.4145 94.9383 95.0519 96.9019 94.2764 98.697L100.39 97.9731ZM118.844 81.9087C125.136 81.1636 129.519 84.4496 130.086 90.6518L130.221 92.1217L116.457 93.7514C116.952 95.6134 118.503 96.7705 120.577 96.525C122.221 96.3303 123.056 95.5791 123.277 95.2269L130.248 94.4014C130.162 97.0207 127.676 101.048 121.062 101.831C114.341 102.627 109.892 99.0223 109.351 93.107C108.791 86.9765 112.659 82.641 118.844 81.9087ZM119.292 86.8202C117.505 87.0319 116.342 88.148 116.129 89.7677L122.921 88.9635C122.42 87.4284 121.044 86.6128 119.292 86.8202ZM142.955 86.555C142.666 86.1545 141.827 85.2754 140.182 85.4701C138.18 85.7072 137.151 87.496 137.361 89.7904C137.574 92.1207 138.94 93.6259 140.942 93.3889C142.658 93.1857 143.35 92.0529 143.496 91.6732L150.252 90.8731C150.336 94.161 147.928 98.6498 141.278 99.4372C135.629 100.106 130.891 96.8982 130.318 90.6243C129.751 84.4222 133.804 80.1372 139.382 79.4768C145.995 78.6937 149.157 82.4505 149.784 85.7465L142.955 86.555ZM150.198 78.7034L157.205 77.8737L157.71 83.3947L164.288 82.6158C169.865 81.9555 172.097 84.6265 172.441 88.3909C172.758 91.8684 171.094 95.3994 165.552 96.0556L151.931 97.6684L150.198 78.7034ZM163.473 87.9307L158.182 88.5572L158.467 91.6762L163.758 91.0497C164.938 90.91 165.535 90.3319 165.434 89.2205C165.348 88.2884 164.652 87.791 163.473 87.9307Z" fill="white"/>
</svg>
