<svg width="305" height="48" viewBox="0 0 305 48" fill="none" xmlns="http://www.w3.org/2000/svg">
<path d="M1.49742 46.7744L0.413689 21.2374L7.77606 20.7276L8.18208 30.295L19.064 29.5415L18.658 19.9741L26.0204 19.4643L27.1041 45.0013L19.7417 45.5111L19.3357 35.9437L8.45377 36.6972L8.85979 46.2646L1.49742 46.7744ZM43.0235 41.3378C42.756 41.8252 41.1718 44.3879 37.2931 44.6565C32.6243 44.9798 28.8023 41.4928 28.5413 35.3423C28.2818 29.2279 31.7863 25.2336 36.4911 24.9078C40.2979 24.6442 42.0118 26.8342 42.3174 27.2459L42.2167 24.8721L49.2917 24.3821L50.0992 43.409L43.1318 43.8915L43.0235 41.3378ZM42.6914 34.3625C42.5968 32.1325 41.1244 30.539 39.0055 30.6858C36.8866 30.8325 35.5577 32.62 35.6523 34.85C35.7485 37.1159 37.2208 38.7094 39.3398 38.5627C41.4587 38.416 42.7876 36.6285 42.6914 34.3625ZM52.3096 43.256L51.5021 24.2291L71.578 22.8389L72.3855 41.8658L65.3463 42.3532L64.7831 29.0812L58.7855 29.4965L59.3487 42.7685L52.3096 43.256ZM74.6001 41.7125L73.7926 22.6856L80.76 22.2032L81.1751 31.9863L87.6554 21.7257L94.6228 21.2432L95.4302 40.2701L88.4629 40.7526L88.0477 30.9694L81.5674 41.23L74.6001 41.7125ZM96.8548 21.0887L103.894 20.6013L104.457 33.8733L109.844 33.5003L109.281 20.2282L116.32 19.7408L116.883 33.0129L122.27 32.6398L121.707 19.3678L128.746 18.8804L129.554 37.9072L97.6622 40.1156L96.8548 21.0887ZM131.772 37.7536L130.965 18.7268L137.932 18.2443L138.347 28.0275L144.827 17.7668L151.795 17.2844L152.602 36.3113L145.635 36.7937L145.22 27.0105L138.739 37.2712L131.772 37.7536ZM161.483 35.6964L160.675 16.6695L167.786 16.1771L168.1 23.5864L174.358 15.722L182.942 15.1277L175.208 24.7176L184.252 34.1197L175.238 34.7439L168.255 27.2192L168.593 35.204L161.483 35.6964ZM191.694 14.0166C197.764 13.5963 202.457 17.2394 202.713 23.282C202.968 29.2886 198.614 33.6303 192.544 34.0506C186.403 34.4758 181.707 30.7608 181.452 24.7542C181.196 18.7116 185.553 14.4418 191.694 14.0166ZM192.286 27.972C194.441 27.8228 195.77 26.0353 195.674 23.7694C195.579 21.5394 194.107 19.9459 191.952 20.0951C189.761 20.2468 188.396 22.0368 188.491 24.2668C188.587 26.5327 190.096 28.1237 192.286 27.972ZM204.803 23.7144L205.345 13.5764L222.763 12.3702L223.571 31.3971L216.532 31.8845L215.968 18.6125L211.443 18.9258L211.198 24.1735C210.927 29.6754 209.636 32.362 204.249 32.735L202.561 32.8519L202.286 26.3777L202.717 26.3479C204.333 26.236 204.71 25.777 204.803 23.7144ZM226.743 22.1952L227.285 12.0572L244.703 10.851L245.511 29.8779L238.471 30.3653L237.908 17.0933L233.383 17.4066L233.138 22.6543C232.867 28.1561 231.576 30.8428 226.189 31.2158L224.501 31.3327L224.226 24.8585L224.657 24.8287C226.273 24.7168 226.65 24.2578 226.743 22.1952ZM256.386 9.53703C262.707 9.09935 266.926 12.5949 267.19 18.8173L267.252 20.292L253.425 21.2494C253.829 23.1333 255.322 24.3647 257.405 24.2204C259.058 24.106 259.928 23.3965 260.166 23.0553L267.169 22.5704C266.955 25.1825 264.275 29.0836 257.631 29.5436C250.88 30.0112 246.611 26.1944 246.36 20.2597C246.098 14.1092 250.173 9.96725 256.386 9.53703ZM256.595 14.4646C254.8 14.5889 253.584 15.6471 253.292 17.2545L260.115 16.782C259.689 15.2243 258.355 14.3427 256.595 14.4646ZM268.725 28.2705L267.917 9.24359L283.72 8.14938L283.964 13.9042L275.201 14.511L275.764 27.783L268.725 28.2705ZM293.602 6.96005C299.923 6.52236 304.141 10.018 304.406 16.2404L304.468 17.715L290.641 18.6725C291.045 20.5564 292.538 21.7877 294.621 21.6435C296.273 21.5291 297.144 20.8195 297.381 20.4784L304.385 19.9934C304.171 22.6055 301.491 26.5066 294.847 26.9667C288.095 27.4342 283.827 23.6174 283.575 17.6827C283.314 11.5323 287.389 7.39027 293.602 6.96005ZM293.811 11.8876C292.015 12.012 290.8 13.0701 290.508 14.6776L297.331 14.2051C296.905 12.6474 295.571 11.7658 293.811 11.8876Z" fill="white"/>
</svg>
