<svg width="305" height="104" viewBox="0 0 305 104" fill="none" xmlns="http://www.w3.org/2000/svg">
<path d="M80.7614 56.7289C73.0826 57.7001 66.6339 53.2197 65.8468 45.3027C65.0491 37.2783 70.5044 31.4012 78.1475 30.4345C85.7906 29.4679 92.2643 33.8363 93.062 41.8607C93.8491 49.7777 88.4045 55.7623 80.7614 56.7289ZM80.1133 50.209C83.9705 49.7212 86.0036 46.5259 85.6332 42.8003C85.2629 39.0746 82.6529 36.4665 78.7956 36.9544C74.9741 37.4377 72.9053 40.6375 73.2757 44.3632C73.646 48.0888 76.256 50.6969 80.1133 50.209ZM101.42 53.6809L100.106 40.4621L93.3197 41.3203L92.7499 35.5885L113.322 32.9867L113.892 38.7185L107.106 39.5767L108.42 52.7956L101.42 53.6809ZM120.248 56.7044L113.962 57.4994L112.862 46.4299L114.541 46.2176C115.373 44.4075 116.081 42.069 116.175 38.2846L116.334 32.6058L133.192 30.4738L134.506 43.6926L137.541 43.3087L138.642 54.3781L132.356 55.1731L131.825 49.8354L119.718 51.3667L120.248 56.7044ZM127.505 44.5779L126.761 37.0909L122.618 37.6148L122.597 37.7626C122.506 41.5828 122.159 43.5492 121.398 45.3504L127.505 44.5779ZM136.975 29.9952L143.975 29.1099L144.524 34.6267L151.095 33.7956C156.667 33.0909 158.92 35.7442 159.294 39.5056C159.639 42.9805 158.003 46.5247 152.467 47.2248L138.859 48.9458L136.975 29.9952ZM162.11 46.0052L160.226 27.0546L167.298 26.1603L169.181 45.1108L162.11 46.0052ZM150.323 39.1167L145.037 39.7853L145.346 42.9019L150.632 42.2334C151.811 42.0843 152.404 41.5015 152.294 40.391C152.201 39.4596 151.501 38.9677 150.323 39.1167ZM176.743 44.1546L169.028 45.1303L176.359 34.8444L167.144 26.1797L176.109 25.0459L180.39 29.1838L184.038 24.0431L191.824 23.0584L184.585 33.1874L193.707 42.009L185.1 43.0976L180.551 38.8122L176.743 44.1546ZM205.817 37.902C205.577 38.4038 204.141 41.0521 200.284 41.54C195.641 42.1272 191.627 38.8623 191.018 32.7365C190.413 26.6465 193.686 22.4601 198.364 21.8684C202.15 21.3896 203.985 23.479 204.314 23.8728L204.079 21.5084L211.115 20.6186L212.999 39.5692L206.07 40.4455L205.817 37.902ZM205.09 30.9568C204.869 28.7357 203.309 27.2282 201.202 27.4947C199.095 27.7612 197.869 29.6211 198.09 31.8421C198.314 34.099 199.875 35.6065 201.982 35.34C204.089 35.0735 205.315 33.2137 205.09 30.9568ZM223.054 12.4704C224.09 12.3394 224.412 11.5733 224.333 10.7851L224.28 10.2478L229.602 9.57474L229.666 10.2196C230 13.587 228.282 16.67 223.532 17.2707C218.781 17.8715 216.5 15.2944 216.165 11.927L216.101 11.2822L221.423 10.6091L221.476 11.1465C221.554 11.9346 221.983 12.6059 223.054 12.4704ZM215.197 39.2911L213.313 20.3406L220.242 19.4642L221.21 29.2082L227.099 18.597L234.028 17.7207L235.912 36.6713L228.983 37.5476L228.014 27.8036L222.125 38.4148L215.197 39.2911ZM6.32111 96.9441L4.43724 77.9935L11.3661 77.1172L12.3347 86.8612L18.2234 76.2499L25.1522 75.3736L27.0361 94.3242L20.1073 95.2005L19.1386 85.4566L13.2499 96.0678L6.32111 96.9441ZM35.8673 93.2073L33.9834 74.2567L40.9837 73.3714L41.614 79.7121L47.9356 78.9126L47.3053 72.5719L54.3056 71.6865L56.1894 90.6371L49.1892 91.5225L48.5054 84.6444L42.1838 85.4439L42.8675 92.322L35.8673 93.2073ZM71.3802 86.1405C71.1408 86.6423 69.7043 89.2906 65.847 89.7784C61.204 90.3656 57.1907 87.1007 56.5817 80.9749C55.9763 74.885 59.2489 70.6986 63.9276 70.1068C67.7135 69.628 69.5486 71.7175 69.8771 72.1112L69.642 69.7469L76.678 68.857L78.5618 87.8076L71.633 88.6839L71.3802 86.1405ZM70.6536 79.1952C70.4328 76.9742 68.8725 75.4666 66.7653 75.7331C64.6581 75.9996 63.4326 77.8595 63.6534 80.0806C63.8777 82.3374 65.438 83.845 67.5452 83.5785C69.6524 83.312 70.878 81.4521 70.6536 79.1952ZM90.6477 68.0333C95.9693 67.3603 99.5862 70.6391 100.12 76.0126C100.708 81.9234 96.4532 86.0527 90.5602 86.798C84.3457 87.5839 79.693 84.4362 78.9594 77.0565C78.8205 75.6594 78.6995 74.4414 78.682 73.1741C78.6017 66.5461 81.2779 62.544 89.3106 60.4036L96.5326 58.4745L97.1166 64.3496L89.9661 66.2696C85.9872 67.3532 84.5583 68.6221 84.4146 71.5422C85.4651 69.7407 87.5762 68.4218 90.6477 68.0333ZM89.9762 80.9229C92.2977 80.6293 93.3338 79.0473 93.138 77.077C92.9457 75.1426 91.6246 73.8587 89.3031 74.1523C86.9816 74.4459 85.9454 76.0279 86.1377 77.9624C86.3336 79.9327 87.6546 81.2165 89.9762 80.9229ZM102.265 84.8098L100.381 65.8592L107.31 64.9829L108.278 74.7269L114.167 64.1157L121.096 63.2393L122.98 82.1899L116.051 83.0662L115.082 73.3223L109.193 83.9335L102.265 84.8098ZM131.875 78.4894L132.801 87.8035L125.872 88.6798L123.315 62.9586L130.351 62.0688L130.608 64.648C130.751 64.2672 132.316 61.4576 136.137 60.9742C140.852 60.378 144.901 63.6384 145.506 69.7284C146.112 75.8183 142.807 80.0451 138.092 80.6413C134.164 81.1382 132.172 78.9235 131.875 78.4894ZM131.22 71.5352C131.448 73.8279 133.005 75.2996 135.255 75.015C137.469 74.735 138.663 72.9154 138.435 70.6227C138.21 68.3659 136.689 66.8896 134.475 67.1697C132.225 67.4543 130.996 69.2783 131.22 71.5352ZM160.747 74.8379C160.508 75.3398 159.071 77.9881 155.214 78.4759C150.571 79.0631 146.558 75.7982 145.949 69.6724C145.343 63.5824 148.616 59.3961 153.294 58.8043C157.08 58.3255 158.915 60.4149 159.244 60.8087L159.009 58.4443L166.045 57.5545L167.929 76.5051L161 77.3814L160.747 74.8379ZM160.02 67.8927C159.8 65.6716 158.239 64.1641 156.132 64.4306C154.025 64.6971 152.799 66.557 153.02 68.778C153.245 71.0349 154.805 72.5425 156.912 72.2759C159.019 72.0094 160.245 70.1496 160.02 67.8927ZM177.985 49.4063C179.02 49.2753 179.342 48.5092 179.264 47.7211L179.21 47.1837L184.532 46.5107L184.596 47.1555C184.931 50.5229 183.212 53.6059 178.462 54.2067C173.712 54.8074 171.43 52.2303 171.095 48.8629L171.031 48.2181L176.353 47.5451L176.406 48.0824C176.485 48.8705 176.913 49.5418 177.985 49.4063ZM170.127 76.2271L168.243 57.2765L175.172 56.4002L176.14 66.1441L182.029 55.5329L188.958 54.6566L190.842 73.6072L183.913 74.4835L182.944 64.7395L177.056 75.3508L170.127 76.2271ZM203.758 59.7856C203.465 59.3873 202.619 58.515 200.976 58.7227C198.976 58.9757 197.962 60.7726 198.189 63.0653C198.421 65.3939 199.799 66.8882 201.799 66.6352C203.513 66.4184 204.196 65.2801 204.339 64.8993L211.089 64.0456C211.199 67.3326 208.826 71.8405 202.183 72.6806C196.54 73.3943 191.777 70.2243 191.153 63.9552C190.537 57.7577 194.556 53.4407 200.128 52.736C206.735 51.9004 209.927 55.6319 210.58 58.9228L203.758 59.7856ZM232.331 68.3599L225.331 69.2452L224.783 63.7284L222.747 63.9859L219.259 70.0131L211.545 70.9888L215.854 63.7694C212.879 63.3114 211.358 61.4724 211.077 58.6423C210.71 54.9525 212.697 51.6543 218.197 50.9586L230.447 49.4093L232.331 68.3599ZM220.055 59.1029L224.27 58.5698L223.96 55.4532L219.746 55.9862C218.567 56.1353 217.974 56.7181 218.084 57.8286C218.177 58.76 218.877 59.2519 220.055 59.1029ZM251.844 53.704C251.552 53.3057 250.705 52.4333 249.063 52.6411C247.062 52.8941 246.048 54.691 246.276 56.9837C246.507 59.3122 247.885 60.8065 249.885 60.5536C251.6 60.3368 252.282 59.1985 252.425 58.8177L259.175 57.964C259.285 61.251 256.912 65.7589 250.269 66.599C244.626 67.3127 239.863 64.1427 239.24 57.8736C238.624 51.6761 242.643 47.3591 248.214 46.6544C254.822 45.8188 258.013 49.5503 258.666 52.8412L251.844 53.704ZM260.908 64.7456L259.025 45.795L265.953 44.9187L266.922 54.6627L272.811 44.0514L279.74 43.1751L281.623 62.1257L274.695 63.002L273.726 53.2581L267.837 63.8693L260.908 64.7456ZM284.278 52.7578L284.245 42.6053L301.567 40.4146L303.451 59.3651L296.451 60.2505L295.137 47.0316L290.636 47.6008L290.688 52.8539C290.73 58.3623 289.593 61.1178 284.236 61.7953L282.557 62.0076L281.916 55.5594L282.345 55.5052C283.952 55.3019 284.302 54.8224 284.278 52.7578Z" fill="white"/>
</svg>
