<svg width="356" height="107" viewBox="0 0 356 107" fill="none" xmlns="http://www.w3.org/2000/svg">
<path d="M18.9136 29.3903C11.1214 28.456 6.49516 22.3196 7.6111 14.7333C8.73227 7.1113 14.9669 2.31335 22.7591 3.24762C31.4092 4.28474 33.5568 10.7039 33.6023 13.6089L26.1676 12.7175C25.8634 12.0649 24.8029 10.1255 21.8004 9.76548C18.1902 9.33263 15.616 11.9961 15.0816 15.629C14.5472 19.2619 16.2622 22.4396 19.8724 22.8724C22.9464 23.241 24.4899 21.6501 24.9721 21.0917L32.3711 21.9788C31.6679 24.2867 27.8496 30.4617 18.9136 29.3903ZM32.5232 30.5871L35.2947 11.7459L48.1625 13.2887C52.4875 13.8072 54.5428 16.1559 54.1079 19.1121C53.7726 21.3915 52.108 22.5693 50.6154 22.8252C52.2988 23.4982 53.7334 25.1201 53.3457 27.7557C52.8847 30.89 50.1807 32.7042 45.534 32.1471L32.5232 30.5871ZM45.3778 17.6304L41.6247 17.1804L41.2317 19.8517L44.9848 20.3016C46.0572 20.4302 46.8654 20.1284 46.9964 19.238C47.1431 18.2407 46.4501 17.759 45.3778 17.6304ZM44.7546 24.5872L40.6083 24.09L40.2049 26.8325L44.3512 27.3297C45.6022 27.4797 46.3137 27.0938 46.4552 26.1321C46.5757 25.313 46.0056 24.7372 44.7546 24.5872ZM66.3662 14.9638C72.4069 15.6881 76.3344 20.1459 75.4542 26.1295C74.5792 32.0775 69.4887 35.5266 63.448 34.8024C57.3358 34.0695 53.4188 29.5405 54.2937 23.5925C55.1739 17.6088 60.2539 14.231 66.3662 14.9638ZM64.3334 28.7831C66.478 29.0403 68.1183 27.5334 68.4484 25.2896C68.7732 23.0813 67.6254 21.2402 65.4808 20.9831C63.3004 20.7216 61.6244 22.2242 61.2996 24.4324C60.9695 26.6763 62.153 28.5217 64.3334 28.7831ZM89.8205 19.2258C95.1464 19.8643 97.8595 23.9228 97.0736 29.2653C96.2091 35.1421 91.0795 38.1153 85.1817 37.4082C78.9623 36.6625 75.2126 32.4797 76.2919 25.1426C76.4962 23.7536 76.6743 22.5426 76.9649 21.3089C78.4956 14.8596 82.063 11.6266 90.375 11.4996L97.8493 11.3809L96.99 17.222L89.5873 17.3493C85.4644 17.4349 83.7702 18.3191 82.9222 21.117C84.3785 19.6244 86.7465 18.8572 89.8205 19.2258ZM86.0409 31.567C88.3643 31.8456 89.7534 30.5624 90.0416 28.6034C90.3245 26.6801 89.3545 25.114 87.0311 24.8355C84.7078 24.5569 83.3187 25.8402 83.0357 27.7635C82.7476 29.7224 83.7176 31.2885 86.0409 31.567ZM109.514 20.1372C115.555 20.8615 119.483 25.3193 118.602 31.3029C117.728 37.2509 112.637 40.7 106.596 39.9757C100.484 39.2429 96.5671 34.7138 97.442 28.7658C98.3222 22.7822 103.402 19.4044 109.514 20.1372ZM107.482 33.9565C109.626 34.2136 111.267 32.7068 111.597 30.4629C111.921 28.2547 110.774 26.4136 108.629 26.1564C106.449 25.895 104.773 27.3976 104.448 29.6058C104.118 31.8497 105.301 33.6951 107.482 33.9565ZM122.15 46.7336L115.859 45.9793L117.478 34.9738L119.158 35.1752C120.405 33.6212 121.659 31.5244 122.668 27.876L124.201 22.4055L141.072 24.4283L139.139 37.5709L142.177 37.9351L140.558 48.9407L134.267 48.1864L135.048 42.8795L122.93 41.4267L122.15 46.7336ZM132.133 36.7309L133.228 29.287L129.081 28.7899L129.025 28.928C128.01 32.6121 127.196 34.4355 126.02 35.998L132.133 36.7309ZM154.986 42.6967C154.632 43.1255 152.596 45.346 148.735 44.8831C144.089 44.326 140.988 40.1847 141.884 34.0943C142.774 28.0394 146.965 24.7724 151.647 25.3338C155.436 25.7881 156.709 28.2604 156.933 28.7221L157.278 26.3714L164.32 27.2157L161.548 46.0569L154.614 45.2255L154.986 42.6967ZM155.967 35.7828C156.292 33.5746 155.144 31.7334 153.035 31.4806C150.926 31.2277 149.286 32.7346 148.961 34.9428C148.631 37.1867 149.779 39.0278 151.887 39.2807C153.996 39.5335 155.637 38.0267 155.967 35.7828ZM170.365 47.114L173.137 28.2728L186.005 29.8156C190.33 30.3342 192.385 32.6828 191.95 35.639C191.615 37.9185 189.95 39.0962 188.457 39.3522C190.141 40.0252 191.575 41.647 191.188 44.2826C190.727 47.4169 188.023 49.2311 183.376 48.674L170.365 47.114ZM183.22 34.1573L179.467 33.7073L179.074 36.3786L182.827 36.8286C183.899 36.9571 184.707 36.6554 184.838 35.7649C184.985 34.7677 184.292 34.2859 183.22 34.1573ZM182.597 41.1141L178.45 40.617L178.047 43.3595L182.193 43.8566C183.444 44.0066 184.156 43.6207 184.297 42.6591C184.418 41.8399 183.848 41.2641 182.597 41.1141ZM194.484 30.8323L201.49 31.6723L200.683 37.1572L207.26 37.9458C212.836 38.6143 214.377 41.735 213.827 45.4748C213.319 48.9296 210.871 51.9706 205.331 51.3064L191.712 49.6735L194.484 30.8323ZM214.982 52.4635L217.753 33.6222L224.831 34.4708L222.059 53.312L214.982 52.4635ZM205.219 42.9203L199.928 42.286L199.473 45.3847L204.763 46.019C205.942 46.1604 206.659 45.7389 206.822 44.6348C206.958 43.7088 206.398 43.0617 205.219 42.9203ZM238.588 37.0626C243.914 37.7012 246.627 41.7597 245.841 47.1022C244.977 52.979 239.847 55.9522 233.949 55.2451C227.73 54.4994 223.98 50.3166 225.06 42.9795C225.264 41.5905 225.442 40.3795 225.733 39.1458C227.263 32.6965 230.831 29.4635 239.143 29.3365L246.617 29.2178L245.758 35.0589L238.355 35.1862C234.232 35.2718 232.538 36.156 231.69 38.9539C233.146 37.4613 235.514 36.6941 238.588 37.0626ZM234.809 49.4039C237.132 49.6825 238.521 48.3992 238.809 46.4403C239.092 44.517 238.122 42.9509 235.799 42.6724C233.475 42.3938 232.086 43.677 231.803 45.6003C231.515 47.5593 232.485 49.1254 234.809 49.4039ZM258.282 37.9741C264.323 38.6984 268.25 43.1562 267.37 49.1398C266.495 55.0878 261.405 58.5369 255.364 57.8126C249.252 57.0798 245.335 52.5507 246.21 46.6027C247.09 40.6191 252.17 37.2413 258.282 37.9741ZM256.249 51.7934C258.394 52.0505 260.034 50.5437 260.364 48.2998C260.689 46.0916 259.541 44.2505 257.397 43.9933C255.216 43.7319 253.54 45.2345 253.216 47.4427C252.885 49.6866 254.069 51.532 256.249 51.7934ZM274.545 57.0315L273.183 66.2919L266.248 65.4605L270.01 39.8877L277.051 40.7319L276.674 43.2963C276.905 42.9616 279.105 40.6158 282.93 41.0743C287.648 41.64 290.785 45.7856 289.894 51.8404C289.004 57.8953 284.772 61.1936 280.054 60.6279C276.122 60.1565 274.727 57.5246 274.545 57.0315ZM275.597 50.1262C275.262 52.4056 276.415 54.2112 278.666 54.4811C280.883 54.7469 282.482 53.2713 282.817 50.9919C283.147 48.748 282.03 46.9468 279.814 46.6811C277.562 46.4111 275.927 47.8823 275.597 50.1262ZM303.44 60.496C303.085 60.9247 301.049 63.1452 297.189 62.6824C292.542 62.1252 289.441 57.984 290.337 51.8935C291.228 45.8386 295.418 42.5716 300.101 43.1331C303.89 43.5873 305.163 46.0597 305.386 46.5213L305.732 44.1706L312.773 45.0149L310.002 63.8562L303.068 63.0247L303.44 60.496ZM304.42 53.582C304.745 51.3738 303.597 49.5327 301.488 49.2798C299.379 49.027 297.739 50.5338 297.414 52.742C297.084 54.9859 298.232 56.827 300.341 57.0799C302.45 57.3327 304.09 55.8259 304.42 53.582ZM320.469 56.4124L321.124 51.9603L353.044 55.7874L352.389 60.2395L320.469 56.4124ZM51.4534 64.0677L54.2249 45.2264L74.2057 47.6221L71.4343 66.4633L64.4284 65.6234L66.3617 52.4808L60.3924 51.7651L58.4592 64.9077L51.4534 64.0677ZM75.8799 73.9916L79.7411 67.2781L74.015 47.5992L81.9502 48.5506L84.5023 58.8965L89.8854 49.502L96.9984 50.3549L82.8858 74.8316L75.8799 73.9916ZM99.6176 69.8425L101.551 56.6999L94.7594 55.8856L95.5977 50.1869L116.186 52.6554L115.348 58.3541L108.557 57.5399L106.623 70.6824L99.6176 69.8425ZM117.115 52.7668L124.121 53.6068L123.314 59.0917L129.891 59.8803C135.467 60.5488 137.008 63.6695 136.458 67.4093C135.95 70.8641 133.502 73.9051 127.962 73.2408L114.343 71.608L117.115 52.7668ZM127.849 64.8548L122.559 64.2205L122.104 67.3192L127.394 67.9535C128.573 68.0949 129.29 67.6734 129.452 66.5693C129.589 65.6432 129.029 64.9962 127.849 64.8548ZM143.18 75.0655L145.951 56.2242L153.029 57.0728L151.95 64.4098L159.57 57.8571L168.113 58.8813L158.72 66.8526L165.842 77.7826L156.87 76.7069L151.42 68.0071L150.257 75.914L143.18 75.0655ZM174.188 85.7786L178.05 79.065L172.324 59.3862L180.259 60.3376L182.811 70.6834L188.194 61.289L195.307 62.1418L181.194 86.6186L174.188 85.7786ZM205.91 70.4084C205.723 69.951 205.114 68.8993 203.469 68.7022C201.468 68.4622 200.047 69.9592 199.712 72.2386C199.371 74.5537 200.346 76.3378 202.347 76.5778C204.063 76.7835 205.001 75.8449 205.232 75.5102L211.988 76.3201C211.297 79.5356 207.901 83.3328 201.253 82.5357C195.605 81.8586 191.753 77.6273 192.67 71.3944C193.577 65.2327 198.523 62.02 204.099 62.6886C210.712 63.4814 212.903 67.876 212.737 71.2269L205.91 70.4084ZM212.024 83.3197L214.795 64.4784L234.776 66.8741L232.004 85.7153L224.999 84.8753L226.932 71.7328L220.963 71.0171L219.029 84.1596L212.024 83.3197ZM246.49 67.7711C252.781 68.5254 256.27 72.7494 255.363 78.9111L255.149 80.3714L241.387 78.7214C241.431 80.6477 242.667 82.1369 244.74 82.3855C246.384 82.5826 247.372 82.0487 247.67 81.7581L254.64 82.5938C253.941 85.1197 250.577 88.4496 243.965 87.6568C237.245 86.8511 233.767 82.3022 234.632 76.4254C235.528 70.335 240.306 67.0297 246.49 67.7711ZM245.772 72.6506C243.985 72.4363 242.592 73.248 242.004 74.7723L248.796 75.5865C248.669 73.9765 247.523 72.8606 245.772 72.6506ZM260.01 89.0731L252.289 88.1474L261.898 79.9483L255.061 69.3062L264.032 70.3818L267.181 75.435L271.968 71.3333L279.76 72.2675L270.279 80.3371L276.988 91.1088L268.374 90.0759L265.001 84.8147L260.01 89.0731ZM279.249 98.3751L283.11 91.6616L277.384 71.9827L285.32 72.9341L287.872 83.28L293.255 73.8855L300.368 74.7384L286.255 99.2151L279.249 98.3751Z" fill="white"/>
</svg>
